<svg xmlns="http://www.w3.org/2000/svg" fill="none" viewBox="0 0 44 45"><path fill="#000" d="M43.6 24.5C46.2 14 35.3 3.3 25.4 1.4c-5.4-1-11 0-15.7 3-4 2.6-8 7.2-8.6 12.1v.3a21 21 0 0 0 7.2 23.4c6.9 5 18.1 6.9 25.4 1.5a.6.6 0 0 0-.6-1l-.8.4c-.2-.2-.4-.4-.8-.2-4.8 2.3-11.5 1.1-16.3-.6-.5-.2-1 .7-.4 1a21.2 21.2 0 0 0 11.7 2c-1.8.4-3.7.6-5.7.4-4-.3-7.6-1.9-11-4.1a18 18 0 0 1-8-10.5 21.6 21.6 0 0 1 .3-12.3l.6-1.2a19 19 0 0 0-1 9.9c1 6.3 4.5 10.4 9.7 13.8.6.4 1.3-.6.6-1a19 19 0 0 1-9-13c-.9-5.7 1.2-11 4.5-15.5.3-.4-.3-.8-.6-.5-.6.5-1.1 1-1.6 1.7C6.1 9.8 7 8.7 8 7.7c-.3.4.1 1 .6.7l3.6-2.3L15 4.7h.5C22.2 3 29 3.7 34 8.7c.3.1.5 0 .6-.1 0 .2.1.5.4.5.6 0 .6-.9 0-.9l-.3.2-.1-.3c-1.7-1.8-4-3.4-6.3-4.4 7 2.5 12.8 8.9 13.7 16.2-.5-2.4-1.5-4.6-3-6.7-.3-.5-1 0-.8.5a26 26 0 0 1 3 11.2 19 19 0 0 1-3.7 11c-.2.4.3.8.6.5h.4c3.1-3 5.4-7.4 5.1-11.8Z"/><path fill="#000" d="M30.7 13.2H13.3c-1.2 0-2.1 1-2.1 2.1v10.8c0 1.2 1 2.2 2.1 2.2h17.4c1.2 0 2.1-1 2.1-2.2V15.3c0-1.2-1-2.1-2.1-2.1Z"/><path stroke="#000" stroke-linecap="round" stroke-linejoin="round" stroke-width="1.8" d="M17.7 32.6h8.6M22 28.3v4.3"/></svg>