<svg xmlns="http://www.w3.org/2000/svg" fill="none" viewBox="0 0 44 45"><path fill="#000" d="M37.2 35.9c-.6.2-1 .9-1.3 1.4-.2.4-.7 1-.7 1.6 0 .1.2.3.3.2.6-.1 1-.8 1.4-1.1.4-.4 1-1 1-1.6 0-.3-.4-.6-.7-.5Z"/><path fill="#000" d="M43.6 23.8C46.2 13.2 35.3 2.5 25.4.6c-5.4-1-11 0-15.7 3-4 2.6-8 7.2-8.6 12.1v.3a21 21 0 0 0 7.2 23.4c6.9 5.1 18.1 7 25.4 1.6a.6.6 0 0 0-.6-1l-.8.3c-.1-.2-.4-.3-.8-.2-4.8 2.3-11.5 1.2-16.3-.5-.5-.2-1 .6-.4.9a21.2 21.2 0 0 0 11.7 2c-1.8.4-3.6.7-5.7.5-4-.4-7.6-2-11-4.2A18 18 0 0 1 2 28.3 21.6 21.6 0 0 1 2.1 16l.6-1.2a19 19 0 0 0-1 10c1 6.2 4.5 10.4 9.7 13.8.7.4 1.3-.7.6-1a19 19 0 0 1-9-13.1C2 18.8 4.2 13.5 7.5 9c.3-.4-.3-.8-.6-.5l-1.6 1.6L8 7c-.2.4.1 1 .6.7l3.6-2.4L15 4h.5C22.2 2.4 29 3 34.1 8c.2.2.4 0 .5 0 0 .2.1.4.4.4.6 0 .6-.8 0-.8l-.3.1-.1-.3c-1.7-1.8-4-3.3-6.3-4.4 7 2.6 12.8 9 13.7 16.2-.5-2.3-1.5-4.6-3-6.6-.3-.5-1 0-.8.5 2 3.5 2.8 7.2 3 11.2a19 19 0 0 1-3.7 11c-.2.3.3.8.6.5h.4c3.1-3 5.4-7.4 5.1-11.9Z"/><path fill="#000" d="M13 39c0 .4.1.7.5.8l.7.2c.4.1.5-.5.3-.7l-.6-.5c-.3-.2-.7 0-.8.3Z"/><path fill="#E30029" d="m26.4 14.2-1.3.2-1.2.6-1 .7-.8.7-.8-.7-1-.7-1.2-.6-1.3-.2c-1.5 0-2.7.4-3.5 1.3-.9.9-1.3 2-1.3 3.6l.2 1.4.5 1.3.7 1 .6.7.3.3 6.3 6.2.4.2c.1 0 .3 0 .4-.2l6.3-6.2c1.5-1.6 2.3-3.2 2.3-4.7s-.4-2.7-1.3-3.6c-.6-.9-1.8-1.3-3.3-1.3Z"/></svg>