<svg xmlns="http://www.w3.org/2000/svg" fill="none" viewBox="0 0 44 45"><path fill="#000" d="M26 10.2h-8.9a7 7 0 0 0-7.1 7.1v9a7 7 0 0 0 7.1 7h9a7 7 0 0 0 7-7v-9a7 7 0 0 0-7-7.1Zm5 15.2c0 3.2-2.6 5.7-5.8 5.7H18a5.8 5.8 0 0 1-5.8-5.7v-7.2c0-3.2 2.6-5.8 5.8-5.8h7.2c3.2 0 5.8 2.6 5.8 5.8v7.2Z"/><path fill="#000" d="M21.9 15.7a6.1 6.1 0 1 0 0 12.2 6.1 6.1 0 0 0 0-12.2Zm0 9.8a3.7 3.7 0 1 1 0-7.4 3.7 3.7 0 0 1 0 7.4ZM27.6 14a1.6 1.6 0 1 0 0 3.2 1.6 1.6 0 0 0 0-3.1Zm9.6 21.7c-.6.2-1 .9-1.3 1.4-.2.5-.7 1-.7 1.6 0 .2.2.3.3.3.6-.2 1-.8 1.4-1.2.4-.4 1-1 1-1.5 0-.4-.4-.7-.7-.6Z"/><path fill="#000" d="M43.6 23.7C46.2 13 35.3 2.5 25.4.7 20-.5 14.4.5 9.7 3.5c-4 2.6-8 7.2-8.6 12v.4a21 21 0 0 0 7.2 23.3c6.9 5 18.1 6.8 25.4 1.5a.6.6 0 0 0-.6-1l-.8.4c-.2-.3-.4-.4-.8-.2-4.8 2.2-11.5 1-16.3-.6-.5-.2-1 .7-.4.9a21.2 21.2 0 0 0 11.7 2c-1.8.5-3.7.7-5.7.5-4-.4-7.6-1.9-11-4.1a18 18 0 0 1-8-10.5A21.4 21.4 0 0 1 2.2 16l.6-1.1a19 19 0 0 0-1 9.8c1 6.3 4.5 10.4 9.7 13.8.6.4 1.3-.6.6-1a19 19 0 0 1-9-13A20.4 20.4 0 0 1 7.5 9c.3-.4-.3-.8-.6-.5-.6.5-1.1 1-1.6 1.7C6.1 9 7 7.9 8 6.9c-.3.4.1 1 .6.7l3.6-2.3L15 4h.5C22.2 2.2 29 3 34 8c.3.1.5 0 .6-.1 0 .2.1.5.4.5.6 0 .6-.9 0-.9l-.3.2-.1-.3c-1.7-1.8-4-3.3-6.3-4.4 7 2.5 12.7 8.8 13.7 16-.5-2.3-1.5-4.5-3-6.6-.3-.5-1 0-.8.5a26 26 0 0 1 3 11.2c0 4-1.5 7.6-3.7 11-.2.3.3.7.6.4h.4c3.1-3 5.4-7.4 5.1-11.8Z"/><path fill="#000" d="M13 39c0 .3.1.6.4.7l.7.2c.5 0 .6-.5.4-.8l-.6-.4c-.3-.2-.7 0-.8.2Z"/></svg>