<svg xmlns="http://www.w3.org/2000/svg" fill="none" viewBox="0 0 44 45"><path fill="#000" d="M43.6 24.2C46.2 13.6 35.3 2.9 25.4 1 20 0 14.4 1 9.7 4c-4 2.6-8 7.2-8.6 12.1v.3a21 21 0 0 0 7.2 23.4c6.9 5.1 18.1 6.9 25.4 1.6a.6.6 0 0 0-.6-1c-.3 0-.6.2-.8.3-.2-.2-.4-.4-.8-.2-4.8 2.3-11.5 1.1-16.3-.6-.5-.2-1 .7-.4 1a21.2 21.2 0 0 0 11.7 2c-1.8.4-3.7.6-5.7.5-4-.4-7.6-2-11-4.2a18 18 0 0 1-8-10.5 21.6 21.6 0 0 1 .3-12.3l.6-1.2a19 19 0 0 0-1 10c1 6.2 4.5 10.3 9.7 13.8.6.4 1.3-.7.6-1a19 19 0 0 1-9-13.2C2 19.2 4.2 14 7.5 9.4c.3-.3-.3-.8-.6-.5l-1.6 1.7C6.1 9.4 7 8.3 8 7.3c-.3.4.1 1 .6.7l3.6-2.3L15 4.3h.5c6.7-1.7 13.4-1 18.5 4 .3.2.5 0 .6-.1 0 .2.1.5.4.5.6 0 .6-.8 0-.8l-.3.1-.1-.3c-1.7-1.8-4-3.3-6.3-4.4A21 21 0 0 1 42 19.5c-.5-2.3-1.5-4.6-3-6.6-.3-.6-1-.1-.8.5 1.9 3.4 2.8 7.2 3 11.2a19 19 0 0 1-3.7 11c-.2.3.3.7.6.4 0 .1.3.1.4 0 3.1-3 5.4-7.4 5.1-11.8Z"/><path fill="#000" d="M27.4 11.7H16.6c-1.2 0-2.2 1-2.2 2.2V31c0 1.2 1 2.2 2.2 2.2h10.8c1.2 0 2.2-1 2.2-2.2V14c0-1.2-1-2.2-2.2-2.2Z"/><path stroke="#ECF2FC" stroke-linecap="round" stroke-linejoin="round" stroke-width="3" d="M22 29h0"/></svg>