<svg xmlns="http://www.w3.org/2000/svg" fill="none" viewBox="0 0 44 45"><path fill="#000" d="M15.9 32.1 33.6 23 16 13.6v18.5Zm21.3 4.4c-.6.2-1 .9-1.3 1.4-.2.4-.7 1-.7 1.5 0 .2.2.4.3.3.6-.1 1-.8 1.4-1.1.4-.4 1-1 1-1.6 0-.3-.4-.6-.7-.5Z"/><path fill="#000" d="M43.6 24.4c2.6-10.5-8.3-21.2-18.2-23-5.4-1-11 0-15.7 3-4 2.5-8 7.2-8.6 12v.3A21 21 0 0 0 8.4 40c6.9 5 18.1 6.9 25.4 1.6a.6.6 0 0 0-.6-1c-.3 0-.6.2-.8.3-.1-.2-.4-.4-.8-.2-4.8 2.3-11.5 1.1-16.3-.6-.5-.1-1 .7-.4 1a21.2 21.2 0 0 0 11.7 2c-1.8.4-3.6.6-5.7.4-4-.3-7.6-1.8-11-4A18 18 0 0 1 2 29a21.4 21.4 0 0 1 .2-12.3l.6-1.2a19 19 0 0 0-1 9.9c1 6.2 4.5 10.4 9.7 13.8.7.4 1.3-.7.6-1a19 19 0 0 1-9-13A20.4 20.4 0 0 1 7.5 9.7c.3-.4-.3-.8-.6-.5l-1.6 1.6L8 7.7c-.2.4.1 1 .6.7L12.2 6 15 4.7h.5c6.7-1.7 13.4-1 18.6 4 .2.1.4 0 .5-.2 0 .3.1.6.4.6.6 0 .6-.9 0-.9-.1 0-.2 0-.3.2l-.1-.3c-1.7-1.9-4-3.4-6.3-4.5 7 2.6 12.8 9 13.7 16.2-.5-2.3-1.5-4.6-3-6.6-.3-.5-1 0-.8.5a24 24 0 0 1 3 11.1c0 4.1-1.5 7.6-3.7 11-.2.3.3.8.6.5h.4c3.1-3 5.4-7.4 5.1-11.8Z"/><path fill="#000" d="M13 39.7c0 .3.1.6.4.7l.7.2c.5 0 .6-.5.4-.8l-.6-.4c-.3-.2-.7 0-.8.3Z"/></svg>