<svg xmlns="http://www.w3.org/2000/svg" fill="none" viewBox="0 0 81 80"><g clip-path="url(#a)"><path fill="#fff" d="m71.8 26.6.8-2.7-2.7.1c-.3 0-2 0-3.6-1.2h.4c1.7 0 3.3-1 4-2.4l1.1-2.6-2.8-.2s-1-.1-2.3-1.4A4.4 4.4 0 0 0 62 15l.1-.6a5.8 5.8 0 0 0-1.2-4.3l-2-2.5-1.3 3s-.4.7-1 1c-.1-.9-.5-1.9-1.5-2.8a6.9 6.9 0 0 0-5.9-2l-2.5.5c.1-.6.5-1.5 1-2.4l1.4-2.1-3.5.4-1-2.4L42.4 2l-2-1.9-2 2L36.3.7l-1 2.4-3.5-.4L33 4.9c.6.9 1 1.8 1 2.4l-2.3-.5h-1.1c-1.1 0-3.2.2-5 2-.9 1-1.3 2-1.5 2.8-.6-.3-1-1-1-1l-1.2-3-2.1 2.5a6 6 0 0 0-1.2 4.3l.2.6-1.4-.2c-1.2 0-2.3.5-3.2 1.4-1.3 1.3-2.3 1.4-2.3 1.4s-1.1.2-2.9.2l1.2 2.6a4.5 4.5 0 0 0 4 2.4h.4A6.6 6.6 0 0 1 11 24H8.3l.9 2.6c.4 1.3 1.8 3.6 4.6 3.8-.3 1.3-1 2.7-2.5 3.3l-2 .8 1 2a5 5 0 0 0 4.4 2.3c.5 0 1 0 1.4-.2 0 .5.2 1 .4 1.5.6 1.9 0 3.2 0 3.2l-1 2.2 2.3.6a6.5 6.5 0 0 0 2.8 0l.7-.2 1.1 1.4a8.4 8.4 0 0 0 6.3 2.3h1.9l-4 1.6 3 1.4 3.7 1.6-.4 1 1 .5c.1 0 2.1.9 5.4 1l1.2.1h1.2c3.3-.2 5.2-1 5.3-1.1l1-.5-.3-1 3.7-1.6 3-1.4-4-1.6h1.9c2.7 0 4.8-.8 6.2-2.3.5-.4.8-.9 1.1-1.4a5.2 5.2 0 0 0 2 .4c.8 0 1.5-.2 1.5-.2l2.3-.6-1-2.2s-.6-1.3 0-3.2c.3-.5.4-1 .5-1.5l1.4.2c2.7 0 4-2 4.3-2.4l1.1-1.9-2-.9c-1.5-.5-2.2-2-2.5-3.2 2.7-.2 4.2-2.5 4.6-3.8ZM34.3 8.2Z"/><path fill="#fff" d="M40.5 8c-2.2.1-3.9.8-4.3 1.7l4.3 1.6 4.2-1.6c-.3-.9-2-1.6-4.2-1.6Zm0 44c-1.4 0-3.3-.3-4.2-.6l-1 2.9a20.3 20.3 0 0 0 10.4 0l-1-2.9c-1 .3-2.8.5-4.2.5Zm8.1-3a17 17 0 0 1-3.6 1.5l1 2.5c1.6-.4 3-1 4-1.5l-1.8-.6.5-1.7Zm-16.3 0 .5 1.8-1.8.6 4 1.5 1-2.4c-1.1-.3-2.9-1-3.7-1.4Zm8.2-43.7c1.6 0 3.3.4 4.6 1.1l.4-1.3h-.4l-.5.1-.2-.4-.7-1.4-1.1.6-.5.3-.4-.4-1.2-1.2-1.3 1.2-.3.4-.5-.3-1.2-.6-.6 1.4-.2.4h-.5l-.5-.1.5 1.3c1.3-.7 3-1 4.6-1ZM66 20.7l.7.2c1 0 1.8-.6 2.1-1.3 0 0-1.7-.1-3.6-2-.5-.6-1.2-.8-1.7-.8a3 3 0 0 0-1.5.4c2.3 1.2 2.7 3.1 4 3.5Zm-51.7.2c.2 0 .4 0 .6-.2 1.3-.4 1.8-2.3 4-3.5 0 0-.6-.4-1.4-.4-.6 0-1.2.2-1.8.8-1.9 1.9-3.6 2-3.6 2 .3.7 1.2 1.3 2.2 1.3Z"/><path fill="#fff" d="M66.6 28.5h.1c2.4 0 3.2-2.5 3.2-2.5-.5 0-4-.1-6.5-3.2-1.6-2-3-3.9-5.6-4.6h-.2l-.1-.3c0-.4.2-.8.8-1.2 3.7-2.3 1.2-5.4 1.2-5.4s-1 2.5-3.4 2.5H56l-.8-.1-.5-.1s.7-1.8-.9-3.4a4.9 4.9 0 0 0-4.2-1.4c.8 1 1.4 2.7.4 3.8-.8 1-2.7 1-2.7 2.3 0 .6.5 1.3 1.5 1.9a16 16 0 0 1 7.1 7.5c1.5 4.1-.2 6.8-2.6 8.4 0 0 .7.7 1.8.8h.7c2.3 0 3.6-1.1 3.6-1.1s-.2 1.5-1.5 3a6.1 6.1 0 0 1-4.8 2s-.1 1 .9 2c.6.5 2.1.7 2.1.7s-2.8.5-3 4.6c-.2 2.2-.8 3-.8 3 6.5 0 6.3-5.5 6.3-5.5a3.1 3.1 0 0 0 3 2h1s-1-2 0-4.7c.8-2.3.6-4 .6-4s1 1.3 3 1.3c1.9 0 2.6-1.3 2.6-1.3C64.6 33.7 65 28 65 28s.5.4 1.6.5Zm-1.3 6a7.7 7.7 0 0 1-3-4C61.8 35 59.6 38 57 41a9.5 9.5 0 0 0-1.8 3s.3-1.7 1.5-3a18 18 0 0 0 4.8-10.6c.1-2.9-.6-5.2-1.8-7.1.7 2 .6 4.4-1.6 6.7 0 0 4.4-5.2-1.8-10.6-2.5-2-5.2-3.3-6.5-4.2 5 1.6 7.4-.2 7.4-.2-1.6 1.4-3.7 1.4-5 1.2l1.2.6c4.2 2.2 8 6 8.7 11.2 1 5 3.1 6.3 3.1 6.3ZM24.8 40s1.5-.1 2.2-.7c1-.9.9-2 .9-2-2.3 0-3.8-.7-4.9-2-1.2-1.4-1.4-2.9-1.4-2.9s1.2 1 3.6 1h.6c1.1 0 1.9-.7 1.9-.7-2.4-1.6-4.2-4.3-2.6-8.4 1.2-3.2 4.1-5.7 7-7.5 1-.6 1.6-1.3 1.6-1.9 0-1.3-2-1.4-2.8-2.3-1-1-.3-2.8.5-3.8h-.7c-.9 0-2.3.1-3.5 1.4-1.7 1.6-1 3.4-1 3.4h-.4l-.8.1h-.2c-2.3 0-3.3-2.4-3.3-2.4s-2.5 3 1.1 5.4c.7.4 1 .8.9 1.2l-.1.3h-.3c-2.6.7-4 2.5-5.6 4.6a8.6 8.6 0 0 1-6.4 3.2s.8 2.5 3.1 2.5h.1c1.1 0 1.7-.5 1.7-.5s.4 5.7-3.9 7.5a3 3 0 0 0 2.6 1.3c2.1 0 3-1.3 3-1.3s-.1 1.7.7 4c.9 2.7 0 4.7 0 4.7H20c1.8-.4 2.2-2 2.2-2s-.1 5.4 6.3 5.4c0 0-.5-.7-.7-3-.3-4-3-4.5-3-4.5Zm-1 1c-2.6-3-4.8-6-5-10.5-.3.8-1.4 3-3.2 4 0 0 2.2-1.4 3.2-6.5.6-5.1 4.5-8.9 8.7-11.1l1-.6a6 6 0 0 1-4.9-1.2s2.5 1.8 7.5.2c-1.4.9-4 2.2-6.6 4.2-6.1 5.4-1.7 10.6-1.7 10.6a6.4 6.4 0 0 1-1.7-6.7 12.8 12.8 0 0 0-1.8 7A18 18 0 0 0 24.2 41c1.2 1.4 1.4 3.1 1.4 3.1s-.5-1.5-1.8-3Zm11.9-20.9a6.3 6.3 0 0 1 .7.9l.3.6c1 1.5 2.5 2.5 3.8 2.5 1.3 0 2.8-1 3.7-2.5l.3-.6a6.8 6.8 0 0 1 .7-.9c.6-.5 1.1-.8 1.9-1l-.4-.2-1.3-.8-1.3-.7-3.6 1.9-3.6-2-1.4.8-1.3.8-.3.1c.7.2 1.3.6 1.8 1v.1ZM39 20h3.1v1c-.4-.4-1-.3-1-.3v1.5s0 .7.2 1h-1.5c.3-.3.3-1 .3-1v-1.5s-.7-.1-1 .3v-1Z"/><path fill="#fff" d="M40.2 18v-6l-4-1.3 1.1 5.8 2.9 1.5Zm-.9-4.5v1l-.2-.2-.7-.4c-.8-.6-.8-1.2-.8-1.2l1.7.8Zm4.3 3 1-5.8-3.8 1.3v6l2.8-1.5Zm-2-3 1.8-.8s0 .6-.8 1.2c-.5.4-.8.4-.8.4l-.2.1v-1ZM34.7 32l1 .1.1-.3.1-1-.5-.5c-.1-.3-.3-.4-.6-.4-.4 0-.8.2-1 .3-.1.8.5 1.6.9 1.7Zm8.6-3.2L41 30.9l-.1.1h-4.5l-.1 1v.2l5.2 1 2.7-2c-.4-.6-.5-1.3-.4-1.9a1 1 0 0 1-.6-.5Z"/><path fill="#fff" d="M43.9 23.5a4.7 4.7 0 0 1-3.4 1.5 4.7 4.7 0 0 1-1-.1V26c.3.4.6.7 1.2 1h.2v.2s0 1.3 1.4 1.7l.6-.7c-.3-.6-.1-1.3.3-1.6 0 0-.2 1.7 1.2 2.3l.2.1v.3s-.5 1.7 1.1 2.3h.3l-.1.4s-.7 1.5.8 2.3H50v-2.6a2 2 0 0 1-1.8-1.7 2 2 0 0 1-1.2-.7c-.7-.9-.1-1.7-.1-1.8 0 0 0 1 .5 1.5.3.2.6.4 1.1.5h.2v.2S49 31 50 31.2v-5.3c0-.9.3-1.7.6-2.4h-6.7ZM35 25.9l-.1 3.4h.4l1-3.2-.6-1-.7.8Zm10.4 15.5h.1c.6.1.8 2.2 1.8 2.4h.3c.3 0 .4 0 .6-.3l-.9-1.3c-.5-.8-.9-1.6-1.9-1.6-.3 0-.5.2-.5.2a2 2 0 0 0-1.1-.4c-.6 0-1.1.3-1.3.3l-2.2-.2c-.3 0-.6-.4-.7-.5v-.2c-.1-1.8-1.5-2.5-2-2.5v-.5l-.5.6-1.6-.8 1.2 1.3-1 1c-.1.2 0 .3 0 .4l.4.3.5-.3h.7c.2 0 .3 0 .4-.2 0 .6-.7 1.8-.3 2.6l.3.7-2-.3-.8 1.5c-.3.5-.3 1 0 1.3l.3.5.6-.9-.2-.1c-.1-.2-.1-.3 0-.4l.5-1 2.3.6v-.2c.2-.3.4-.3.7-.3h.3l1.8.2c.7 0 1.5-.2 1.9-.6.8 1.2 2.4 1.4 2.3 2l-.4 2h.8l.4-2.2.1-.5-.8-1c-.2-.5 0-.8-.4-1.5l.3-.1Zm-8.4-3a.2.2 0 0 1-.2-.2l.2-.2c.2 0 .2.1.2.2s0 .2-.2.2Z"/><path fill="#fff" d="M34 43.3s.7-.3.8-.5l-.1-.3c-.1-.1 0-.3 0-.4l.8-.5 1.4.2s-.3-.3-.2-.7l-1.3-.3-1.2.8c-.5.3-.6 1-.4 1.3l.2.4Zm9.4 3.5h.8l.8-2.1a17 17 0 0 1-1.5-.8c.2.3.7.6.6 1l-.7 1.9Z"/><path fill="#FFDD2D" d="M50 35H31v7c0 3 2 4.7 5.2 4.7 2.6 0 3.3.1 4.3 1a4 4 0 0 1 2.3-1l.7-1.9-1-1.1-1.3.1a10.5 10.5 0 0 1-2.1-.2H39l-.1.3-.3.3h-.4l-1.8-.5-.3.4.3.3v.3l-.8 1-.4.5-.5-.5-.3-.4c-.3-.3-.4-.9-.2-1.5l-.5.2-.3-.5-.1-.3c-.3-.6-.2-1.5.5-2.1l1.5-.8 1.4.3.2-.8h-.1l-.8.3-.8-.5s-.3-.3 0-.6l.7-1.1-1.9-2.4 3 1.2.1-.3.4-.4.5.4.2.4c.8.3 2.3 1.3 2.4 2.7l-.5.2.3.2 2 .2h.3l1-.2c.5 0 .8 0 1.2.2h.4l.1-.1c1.2 0 1.7.8 2.2 1.5l.2.3 1 1.4.2.4-.3.3c-.2.2-.6.5-1.1.5a2 2 0 0 1-.7-.1l-.1.3-.4 2A4.4 4.4 0 0 0 50 42v-7Zm-19-.7h14.8c-.8-.7-.8-1.7-.6-2.3l-.5-.4-2.8 2-.1.1-5.9-1a5 5 0 0 1-.6 0 .6.6 0 0 1-.7.4.6.6 0 0 1-.4-.2v-.5a2.3 2.3 0 0 1-1-2.4v-.1h.2c0-.1 0-.2.2-.3h-.4a.3.3 0 1 1 0-.6l1.1.2v-3.5L36 24l1 2-1 3.3.8.2c.2 0 .3.1.3.3l-.3.2-.8-.1.4.4h4.4l1.2-1a2.7 2.7 0 0 1-1.6-2c-.6-.3-1-.7-1.2-1.2-.3-.6-.2-1.2-.2-1.5-.5-.2-1.2-.6-1.8-1.2h-6.7c.3.7.5 1.5.5 2.4v8.4Z"/><path fill="#000" d="M37 38s-.2 0-.2.2l.2.2c.1 0 .2 0 .2-.2 0-.1 0-.2-.2-.2Zm13 12.9-1.1-.4.3-1.2.3-1.2s-2 1-4.7 1.8l-1.3.4v.8l-3 .2c-1.6 0-3-.2-3-.2v-.8l-1.4-.4c-2.7-.7-4.7-1.8-4.7-1.8l.3 1.2.4 1.2-1.1.4-1.3.4c1.4.7 3.4 1.7 5.2 2.1l-.5 1.2s2.3 1 6 1h.1c3.8 0 6-1 6-1l-.4-1.2c1.8-.4 3.7-1.4 5.1-2l-1.2-.5Zm-19 .5 1.8-.6-.5-1.7 3.6 1.4-.8 2.4c-1.6-.5-3-1-4-1.5Zm9.5 3.6a23 23 0 0 1-5.2-.7l1-2.9c1 .3 2.8.5 4.1.5h.1c1.4 0 3.2-.2 4.1-.5l1 2.9c-.6.2-3 .7-5.1.7Zm5.4-2.1-.9-2.4 3.6-1.4-.5 1.7 1.8.6c-1 .5-2.4 1-4 1.5ZM40.5 6c2.2 0 4 .8 5 1.6 0 0 .3-1.8 1.3-3.3l-1.8.2-1-2-1.8 1-1.7-1.8-1.8 1.7-1.8-1-1 2-1.7-.1c1 1.5 1.3 3.3 1.3 3.3a8 8 0 0 1 5-1.6Zm-4.6-.8h.5l.2-.4.6-1.4 1.2.6.5.3.3-.4 1.3-1.2 1.2 1.2.4.4.5-.3 1.1-.6.7 1.4.2.4h.5l.4-.1-.5 1.3c-1.2-.7-2.9-1-4.5-1-1.7 0-3.3.3-4.6 1l-.5-1.3h.5Zm30.8 24.1c3 0 3.9-3 4-3l.3-1.1h-1.1c-.4 0-3.6 0-5.9-3l-.2-.2c-1.5-1.8-2.9-3.6-5.4-4.4l.3-.2c1.4-1 2.2-2 2.3-3.2a4 4 0 0 0-1-3.3l-.7-1-.5 1.1c0 .1-.9 2-2.7 2h-.5a4 4 0 0 0-1.2-3.4A5.7 5.7 0 0 0 50.3 8l-.9.1-1.2.3.8 1c.6.7 1 2 .5 2.8l-1 .6c-.9.4-2 .9-2 2.2 0 .9.7 1.8 1.9 2.5 3.6 2.3 5.8 4.6 6.8 7.2 1.5 4-.5 6.2-2.4 7.4l-.8.6.7.6c.1.1 1 1 2.4 1h.7c.9 0 1.6 0 2.2-.3l-.6 1a5.3 5.3 0 0 1-4.3 1.7h-.8v.7a3.3 3.3 0 0 0 1.8 3 6 6 0 0 0-1.8 4.3 5.9 5.9 0 0 1-.6 2.6l-.8 1.2h1.4c2.3 0 4.1-.6 5.4-1.9a6 6 0 0 0 1.4-2.3 3.8 3.8 0 0 0 2.4.9c.7 0 1.2-.2 1.3-.2l.9-.2-.4-.9s-.8-1.7 0-4c.4-1.1.6-2 .6-2.8a5 5 0 0 0 2.4.6c2.2 0 3.2-1.7 3.2-1.7l.5-.8-.9-.3c-2.6-1.1-3.2-4-3.3-5.6h.9Zm2.1 6.2s-.7 1.3-2.5 1.3c-2.2 0-3-1.3-3-1.3s0 1.7-.7 4c-1 2.7 0 4.7 0 4.7h-1.7c-1.8-.4-2.3-2-2.3-2s.2 5.4-6.2 5.4h-.1s.6-.7.7-3c.3-4 3.1-4.5 3.1-4.5s-1.5-.2-2.1-.8c-1-.9-1-2-1-2 2.3 0 3.8-.7 5-2 1.2-1.4 1.4-2.9 1.4-2.9s-1.3 1-3.6 1a7 7 0 0 1-.7 0 3 3 0 0 1-1.8-.7c2.4-1.6 4.1-4.3 2.6-8.4a16.4 16.4 0 0 0-7.1-7.5c-1-.6-1.5-1.3-1.5-1.9 0-1.3 2-1.4 2.7-2.3 1-1 .4-2.8-.4-3.8h.7c.8 0 2.3.1 3.5 1.4 1.6 1.6 1 3.4 1 3.4h.4l.8.1h.1c2.4 0 3.4-2.4 3.4-2.4s2.5 3-1.2 5.4c-.6.4-.9.8-.8 1.2v.3h.3c2.7.7 4 2.5 5.6 4.6a9 9 0 0 0 6.5 3.2s-.8 2.5-3.2 2.5c-1.2 0-1.7-.5-1.7-.5s-.4 5.7 3.8 7.5Z"/><path fill="#000" d="M61.7 18a7 7 0 0 1 2.2 2c.6.6 1 1.2 1.9 1.5l.9.1c1.2 0 2.4-.7 2.9-1.7l.4-1-1.1-.1s-1.5-.1-3.1-1.8c-.7-.6-1.5-1-2.3-1-1 0-1.8.5-2 .6l-1 .7 1.2.6Zm1.8-1.2c.5 0 1.2.2 1.7.8 2 1.9 3.6 2 3.6 2-.3.6-1.2 1.3-2.1 1.3a2 2 0 0 1-.7-.2c-1.3-.4-1.7-2.3-4-3.5 0 0 .6-.4 1.5-.4ZM62.2 28c-.7-5.1-4.5-8.9-8.7-11.1l-1.1-.6c1.2.2 3.3.2 5-1.2 0 0-2.5 1.8-7.5.2 1.3.9 4 2.2 6.5 4.2 6.2 5.4 1.8 10.6 1.8 10.6a6.4 6.4 0 0 0 1.6-6.8c1.2 2 2 4.3 1.8 7.2A18 18 0 0 1 56.8 41a7 7 0 0 0-1.5 3.1s.5-1.5 1.8-3c2.6-3 4.8-6.1 5.1-10.6.3.8 1.4 3 3.1 4 0 0-2.2-1.4-3.1-6.5ZM29.3 47.2s-.5-.7-.6-2.6a6 6 0 0 0-1.9-4.3l.7-.4a3.3 3.3 0 0 0 1.2-2.6v-.7h-.8a5.4 5.4 0 0 1-5-2.7 7.5 7.5 0 0 0 3 .3c1.3 0 2.2-.9 2.3-1l.8-.6-.9-.6c-1.9-1.2-3.8-3.4-2.3-7.4 1-2.6 3.2-5 6.8-7.2 1.2-.7 1.9-1.6 1.9-2.5 0-1.3-1.2-1.8-2-2.2l-1-.6c-.6-.7-.1-2.1.5-2.9l.7-1-1.2-.2h-.8c-1 0-2.7.2-4.1 1.6a4.2 4.2 0 0 0-1.3 3.4h-.5c-1.8 0-2.6-1.9-2.6-2l-.5-1.1-.9 1s-1.2 1.5-.9 3.3c.2 1.2 1 2.3 2.3 3.2l.3.2c-2.5.8-3.9 2.6-5.4 4.4l-.2.3a7.8 7.8 0 0 1-5.8 3l-1.1-.1.3 1c0 .1 1 3 4 3h.9c-.1 1.5-.7 4.5-3.4 5.6l-.8.3.4.8s1 1.7 3.3 1.7A5 5 0 0 0 17 37l.6 2.7c.8 2.4 0 4 0 4.1l-.3.9.9.2 1.2.2a3.7 3.7 0 0 0 2.5-1 6 6 0 0 0 1.4 2.4c1.2 1.3 3 1.9 5.4 1.9H30l-.8-1.2Zm-.7.4c-6.4 0-6.3-5.4-6.3-5.4s-.4 1.6-2.2 2h-1.7s.9-2 0-4.7c-.8-2.3-.7-4-.7-4s-.9 1.3-3 1.3c-1.8 0-2.6-1.3-2.6-1.3C16.4 33.7 16 28 16 28s-.6.4-1.7.5C11.7 28.5 11 26 11 26h.1c.4 0 4-.1 6.4-3.2 1.7-2 3-3.9 5.6-4.6h.3v-.3c.1-.4-.1-.8-.8-1.2-3.6-2.3-1.1-5.4-1.1-5.4s1 2.4 3.3 2.4h1l.4-.1s-.7-1.8 1-3.4a4.9 4.9 0 0 1 3.5-1.5h.7c-.8 1.1-1.4 2.8-.5 3.9.8 1 2.8 1 2.8 2.3 0 .6-.6 1.3-1.5 1.9-3 1.8-6 4.3-7.1 7.5-1.6 4.1.1 6.8 2.6 8.4 0 0-.8.7-1.9.8a7 7 0 0 1-.6 0c-2.4 0-3.6-1.1-3.6-1.1a6.1 6.1 0 0 0 6.3 5s0 1-1 2c-.6.5-2 .7-2 .7s2.7.5 3 4.6c.2 2.2.7 3 .7 3Z"/><path fill="#000" d="m14.3 21.6.9-.1c.8-.3 1.3-1 1.8-1.6.6-.7 1.2-1.4 2.3-2l1.1-.6-1-.7c-.1 0-.9-.6-2-.6-.8 0-1.6.4-2.2 1-1.6 1.7-3 1.8-3.1 1.8h-1.2l.5 1c.5 1 1.7 1.8 2.9 1.8Zm1.4-4c.6-.6 1.2-.8 1.8-.8.8 0 1.4.4 1.4.4-2.2 1.2-2.7 3.1-4 3.6a2 2 0 0 1-.6 0c-1 0-1.9-.5-2.2-1.2 0 0 1.7-.1 3.6-2Zm3.6 12.9c0-2.9.7-5.2 1.8-7.1-.6 2-.5 4.4 1.7 6.7 0 0-4.4-5.2 1.7-10.6 2.5-2 5.2-3.3 6.6-4.2-5 1.6-7.5-.2-7.5-.2 1.6 1.4 3.7 1.4 5 1.2l-1.1.6c-4.2 2.2-8 6-8.7 11.2-1 5-3.2 6.3-3.2 6.3 1.8-.8 2.9-3 3.1-4 .3 4.6 2.5 7.7 5.1 10.7 1.3 1.5 1.8 3 1.8 3s-.2-1.7-1.4-3a18 18 0 0 1-4.9-10.6ZM39 20v1c.4-.4 1-.3 1-.3v1.5s0 .7-.2 1h1.5c-.3-.3-.3-1-.3-1v-1.5s.7-.1 1 .3v-1h-3Zm-.6-6.1.7.4.2.1v-1l-1.7-.7s0 .6.8 1.2Zm4.2 0c.8-.6.8-1.2.8-1.2l-1.8.8v1l.2-.2s.3 0 .8-.4Z"/><path fill="#000" d="M45.7 10c0-1.5-2.5-2.8-5.2-2.8-2.8 0-5.3 1.3-5.3 2.8v.3l1.2 6.3-1.1.6-3 1.7h.1l-1 .5c-1 .7-1.3 1.8-.6 2.3.1-1 .8-1.8 2.2-1.8 1 0 1.7.4 2.3 1.2l.4.6.5.7h-7.4c.6 1 1 2.2 1 3.5V42c0 4 3.1 5.8 6.4 5.8 2.5 0 2.9-.1 4.3 1.3 1.4-1.4 1.7-1.3 4.3-1.3 3.3 0 6.3-1.9 6.3-5.8V26c0-1.3.5-2.4 1-3.5h-7.3l.5-.7.4-.6c.6-.8 1.3-1.2 2.3-1.2 1.3 0 2 .9 2.2 1.8.6-.5.4-1.6-.7-2.3l-1-.5-2.8-1.7-1.1-.6 1-6.3.1-.3Zm-9.4.7 3.9 1.3v6l-2.9-1.5-1-5.8Zm.8 12.8c.6.6 1.3 1 1.8 1.2 0 .3-.1 1 .2 1.5.2.5.6 1 1.2 1.2 0 .6.5 1.5 1.6 2l-1.2 1h-4.4a.8.8 0 0 1-.4-.3h.7c.2 0 .4 0 .4-.2s-.1-.3-.3-.3l-.9-.2 1-3.4-.9-2-1.5 1.7-.1 3.5-1-.2c-.2 0-.3.1-.3.3 0 .1 0 .3.2.3h.4l-.2.2h-.1v.2c-.3 1 .3 1.9.9 2.3v.6a.6.6 0 0 0 .5.2c.3 0 .5-.2.6-.4h.6l5.9 1 2.9-2 .5.3c-.2.6-.2 1.6.6 2.4H30.9v-8.5a7 7 0 0 0-.5-2.4h6.7Zm7.2 7.7-2.7 2-5.3-1V32c.2-.2.2-.6.2-1H41l2.3-2.2.6.6c0 .5 0 1.2.4 1.8Zm-8.9-.9.5.5a6 6 0 0 1-.1 1.3c-.3 0-.7 0-1.1-.2-.4-.1-1-.9-1-1.7l1-.3c.4 0 .6.1.7.4Zm-.5-1v-3.4l.8-.8.5 1-1 3.2H35Zm9.3 17.4h-.8l.7-1.9c0-.2-.4-.6-.6-.9l1.5.8-.8 2Zm2-2.2-.4 2.2H45l.4-2c.1-.6-1.5-.8-2.3-2-.4.4-1.2.6-2 .6a9.8 9.8 0 0 1-2-.2c-.2 0-.5 0-.6.3l-.1.2L36 43l-.5.9c-.1.1-.1.2 0 .4l.2.1c-.1.4-.6.9-.6.9l-.4-.5c-.2-.2-.2-.8.1-1.3l.9-1.5 1.9.3-.3-.7c-.4-.8.2-2 .3-2.6 0 .2-.2.2-.4.2h-.7l-.5.3-.4-.3s-.1-.2 0-.4l1-1-1.2-1.3 1.6.8.5-.6v.5c.5 0 1.9.7 2 2.5v.1c.1.2.4.6.7.6l2.2.2c.2 0 .7-.3 1.3-.3.3 0 .7.1 1 .3l.6-.1c1 0 1.4.8 2 1.6l.8 1.3c-.2.2-.3.4-.6.4h-.3c-1-.3-1.2-2.4-1.8-2.5l-.3.1c.2.7 0 1 .4 1.6l.7.9v.5Zm-11.5-2v.3c0 .2-.7.5-.7.5l-.2-.3c-.2-.4-.1-1 .4-1.4l1.2-.8 1.3.3c0 .4.2.7.2.7l-1.4-.2-.8.5c0 .1-.1.3 0 .4Zm11.7 4 .4-1.9v-.3l.4.1h.4c.5 0 .9-.3 1-.5l.4-.3-.3-.4a34 34 0 0 0-1.1-1.7c-.5-.7-1-1.5-2.2-1.5l-.5.1c-.4-.2-.7-.2-1.1-.2-.5 0-.9 0-1.1.2h-.2l-2.1-.2-.3-.2.5-.1c-.1-1.5-1.6-2.5-2.4-2.8l-.2-.4-.5-.4-.4.4-.2.3-3-1.2 2 2.4-.8 1.1c-.2.3 0 .6 0 .6l.9.5.8-.3v.8l-1.5-.3-1.5.8c-.7.6-.8 1.5-.5 2l.1.4.3.5.5-.2c-.2.6-.1 1.2.2 1.5l.3.4.4.5.5-.4.7-1 .1-.4-.2-.2.2-.5 1.8.4.4.1.3-.3v-.2h.4l1.9.1 1.3-.1 1 1.1-.6 1.9c-1.2.2-1.8.4-2.4 1-1-.9-1.7-1-4.3-1-3.1 0-5.3-1.8-5.3-4.7v-7H50v7c0 2.4-1.4 4-3.6 4.5Zm4.2-23c-.3.7-.6 1.6-.6 2.4v5.3c-1.1-.2-1.2-1.4-1.2-1.5v-.2h-.3c-.5 0-.8-.3-1-.5-.6-.6-.6-1.5-.6-1.5s-.6.9 0 1.8c.4.4.8.6 1.3.7a2 2 0 0 0 1.8 1.7v2.6h-3.3c-1.5-.8-.9-2.3-.8-2.3l.1-.3-.3-.1c-1.6-.6-1.2-2.3-1.2-2.3l.1-.3h-.2c-1.4-.7-1.2-2.4-1.2-2.4-.4.3-.5 1-.3 1.7l-.6.6a1.8 1.8 0 0 1-1.4-1.7V27h-.2c-.5-.3-1-.6-1.1-1-.2-.5-.1-1 0-1.1H41c.9 0 1.8-.4 2.9-1.4h6.7ZM45.4 18l1.3.8.4.1a6 6 0 0 0-1.8 1v.1l-.4.4a6 6 0 0 0-.7 1c-1 1.6-2.4 2.6-3.7 2.6-1.3 0-2.8-1-3.7-2.5l-.4-.5a9.6 9.6 0 0 0-.7-.9 3 3 0 0 0-1.8-1l.3-.2 1.3-.8 1.4-.7 3.6 1.9 3.6-2 1.3.8Zm-1.8-1.6L40.8 18v-6l3.9-1.3-1 5.8Zm-3.1-5.2-4.3-1.6c.4-.9 2-1.6 4.3-1.6 2.2 0 3.9.7 4.2 1.6l-4.2 1.6ZM7.6 79.7v-7.5h4.5v-2.7H0v2.7h4.4v7.5h3.2Zm9-10.2h-3.3v10.2h3.3V69.5Zm2.3 0v10.2h3V74l5.5 5.6H30V69.5h-3v5.6l-5.3-5.6h-2.9Zm17.6 6.3 3.7 3.9h4.1l-5.2-5.3 5-4.9h-3.9l-3.7 3.8h-.9v-3.8h-3.1v10.2h3.1v-3.9h.9Zm14.2-6.6c-4.2 0-6.7 2.4-6.7 5.4 0 3 2.5 5.4 6.7 5.4s6.7-2.3 6.7-5.4c0-3-2.5-5.4-6.7-5.4Zm0 8.3c-2 0-3.4-1.2-3.4-2.9 0-1.6 1.3-2.9 3.4-2.9 2 0 3.4 1.3 3.4 3 0 1.6-1.3 2.8-3.4 2.8Zm18.5-8H58.9v10.2h3V76h6.8v-2H62v-1.8h7.2v-2.6Zm11.7 0H70.6v10.2h3V76h6.8v-2h-6.7v-1.8h7.2v-2.6Z"/></g><defs><clipPath id="a"><path fill="#fff" d="M0 0h81v80H0z"/></clipPath></defs></svg>