<svg xmlns="http://www.w3.org/2000/svg" fill="none" viewBox="0 0 149 48"><g clip-path="url(#a)"><path fill="#fff" d="m53 22.5.6-2.3h-2.3c-.2 0-1.6 0-3-1h.3c1.5 0 2.8-.8 3.4-2l1-2.2-2.4-.1s-1-.2-2-1.2a3.7 3.7 0 0 0-3.8-1l.2-.5a5 5 0 0 0-1-3.7l-1.8-2.1-1 2.5s-.3.6-.8.9c-.2-.7-.5-1.6-1.3-2.4a5.7 5.7 0 0 0-5-1.6l-2 .4c.1-.5.4-1.3.8-2l1.2-1.8-3 .3-.8-2-1.8 1L26.8 0l-1.6 1.6-1.8-.9-1 2-2.9-.3 1.2 1.8c.5.7.7 1.5.8 2l-2-.4-.9-.1c-.9 0-2.6.2-4 1.7-.9.8-1.2 1.7-1.4 2.4a3 3 0 0 1-.7-.9l-1-2.5-1.8 2.2a5 5 0 0 0-1 3.6l.1.5-1.2-.2c-1 0-1.9.4-2.6 1.2-1 1-2 1.2-2 1.2L.8 15l1 2.2c.5 1.2 1.9 2 3.3 2h.3c-1.4 1-2.8 1-3 1.1H0l.7 2.2c.4 1.1 1.6 3 3.8 3.2-.2 1-.8 2.2-2 2.7l-1.7.8 1 1.6c.5 1 1.7 2 3.5 2 .4 0 .8 0 1.2-.2 0 .5.2.9.3 1.3.5 1.6 0 2.7 0 2.7L6 38.4l2 .5a5.4 5.4 0 0 0 2.2 0l.7-.1.9 1.2a7 7 0 0 0 5.2 1.9h1.5l-3.2 1.3 2.5 1.2 3 1.4-.3.9.9.3s1.7.8 4.4 1h2c2.8-.2 4.4-1 4.5-1l.8-.4-.3-.8a33 33 0 0 0 3.1-1.4l2.4-1.2-3.2-1.3h1.6a7 7 0 0 0 5.2-2l.9-1.1a4.3 4.3 0 0 0 1.6.3c.7 0 1.3-.2 1.3-.2l2-.5-1-1.8s-.4-1.1.1-2.7l.4-1.3 1.1.2c2.3 0 3.4-1.7 3.6-2l1-1.7-1.8-.7a3.5 3.5 0 0 1-2-2.7c2.2-.2 3.5-2 3.8-3.2ZM21.6 6.9Z"/><path fill="#fff" d="M26.8 6.8c-1.8 0-3.2.6-3.5 1.4l3.5 1.4 3.6-1.4c-.3-.8-1.7-1.4-3.6-1.4Zm0 37.1a11 11 0 0 1-3.4-.5l-1 2.5a16.7 16.7 0 0 0 8.7 0l-.8-2.5c-.8.3-2.3.5-3.5.5Zm6.8-2.4c-.6.3-2.1 1-3 1.2l.7 2a18 18 0 0 0 3.4-1.3l-1.5-.5.4-1.4Zm-13.6 0 .5 1.4-1.6.5c1 .5 2 1 3.4 1.3l.7-2-3-1.2Zm6.8-37a8 8 0 0 1 3.8 1l.4-1.2h-.4l-.4.1L30 4l-.5-1-1 .5-.3.2-.3-.3-1-1-1.1 1-.3.3-.4-.2-1-.5-.5 1.1-.2.4h-.8l.4 1a8 8 0 0 1 3.8-.9Zm21.2 13 .6.1a2 2 0 0 0 1.9-1s-1.5-.2-3-1.7a2 2 0 0 0-1.5-.7c-.7 0-1.2.4-1.2.4 1.8 1 2.2 2.6 3.3 3Zm-43 .1h.5c1.1-.4 1.5-2 3.4-3 0 0-.6-.4-1.3-.4a2 2 0 0 0-1.4.7c-1.6 1.5-3 1.6-3 1.6A2 2 0 0 0 5 17.6Z"/><path fill="#fff" d="M48.6 24h.1c2 0 2.6-2 2.6-2-.4 0-3.3-.1-5.4-2.8-1.3-1.7-2.4-3.2-4.6-3.8H41V15c0-.3.2-.6.7-1 3-2 1-4.5 1-4.5s-.9 2-2.8 2H39l-.4-.1s.6-1.5-.8-3a4 4 0 0 0-3-1.1h-.5c.7.9 1.2 2.3.4 3.2-.7.8-2.3.9-2.3 2 0 .5.4 1 1.2 1.6 2.5 1.5 5 3.6 6 6.4 1.2 3.4-.2 5.7-2.2 7 0 0 .6.6 1.5.7h.6c2 0 3-1 3-1s-.2 1.3-1.2 2.5a5 5 0 0 1-4.1 1.8s0 .9.8 1.6c.5.5 1.7.7 1.7.7s-2.3.4-2.5 3.8c-.2 1.9-.6 2.5-.6 2.5 5.4 0 5.2-4.6 5.2-4.6a2.6 2.6 0 0 0 2.5 1.8h.9s-.8-1.7 0-4c.6-2 .5-3.4.5-3.4s.7 1 2.5 1.1c1.5 0 2.2-1.1 2.2-1.1-3.6-1.5-3.3-6.3-3.3-6.3s.5.3 1.4.4Zm-1 5c-1.5-.6-2.4-2.5-2.7-3.2-.2 3.7-2 6.4-4.2 8.9-1.1 1.3-1.5 2.6-1.5 2.6s.2-1.5 1.2-2.6c2-2.5 3.9-5.5 4-9 .1-2.4-.5-4.3-1.5-6 .6 1.7.5 3.8-1.3 5.7 0 0 3.6-4.4-1.5-9-2-1.6-4.3-2.7-5.5-3.5 4.2 1.4 6.3-.1 6.3-.1-1.4 1.2-3.1 1.1-4.2 1l1 .4c3.5 2 6.6 5.1 7.2 9.5.8 4.3 2.6 5.4 2.6 5.4Zm-33.8 4.9s1.2-.2 1.8-.7c.8-.7.7-1.6.7-1.6a5 5 0 0 1-4-1.8c-1-1.2-1.2-2.4-1.2-2.4s1 .9 3 .9h.5c1-.1 1.6-.7 1.6-.7-2-1.3-3.5-3.6-2.2-7 1-2.8 3.4-4.9 5.9-6.4.8-.5 1.3-1.1 1.3-1.6 0-1.1-1.7-1.2-2.4-2-.7-.9-.2-2.3.4-3.2h-.6a4 4 0 0 0-2.9 1.2c-1.3 1.4-.8 2.9-.8 2.9h-.3l-.7.1h-.1c-2 0-2.8-2-2.8-2S8.9 12 12 14c.5.4.7.7.6 1v.2h-.2c-2.2.7-3.4 2.2-4.7 4-2 2.6-5 2.7-5.4 2.7 0 0 .7 2 2.6 2H5c1 0 1.4-.3 1.4-.3s.3 4.8-3.2 6.3c0 0 .6 1.1 2.1 1.1 1.8 0 2.5-1.1 2.5-1.1s0 1.4.6 3.3c.8 2.4 0 4 0 4l.9.1h.5a2.6 2.6 0 0 0 1.9-1.8s-.1 4.6 5.2 4.6c0 0-.4-.6-.5-2.5-.3-3.4-2.6-3.8-2.6-3.8Zm-.9.8c-2.1-2.5-4-5.2-4.2-9-.2.7-1.1 2.7-2.6 3.4 0 0 1.8-1.1 2.6-5.4.6-4.4 3.8-7.5 7.3-9.5l1-.4c-1.2.1-2.9.2-4.2-1 0 0 2 1.5 6.2.1-1.2.8-3.4 1.9-5.5 3.6-5.1 4.5-1.4 9-1.4 9-1.9-2-2-4-1.4-5.8-1 1.7-1.6 3.6-1.5 6 .1 3.5 2 6.5 4 9a6 6 0 0 1 1.2 2.6S14 36 13 34.7Zm10-17.7a5.4 5.4 0 0 1 .5.7l.3.5c.8 1.3 2 2.1 3.1 2.1s2.3-.8 3.1-2l.3-.5a5.7 5.7 0 0 1 .6-.8c.4-.4.9-.7 1.5-1H32l-1-.7-1.2-.6-3 1.6-3-1.6-1.1.6-1 .6h-.1l-.3.2c.6.2 1.1.5 1.5.9Zm2.7-.1h2.5v.9c-.3-.4-.8-.3-.8-.3v1.2s0 .6.2.9h-1.3c.3-.3.3-.9.3-.9v-1.2s-.6-.1-.9.3v-1Z"/><path fill="#fff" d="M26.6 15.2v-5L23.3 9l.9 5 2.4 1.2Zm-.7-3.8v.8h-.2l-.6-.5c-.7-.5-.7-1-.7-1l1.5.7Zm3.6 2.6.8-5-3.2 1.1v5.1l2.4-1.2Zm-1.7-2.6 1.4-.6s0 .4-.6 1c-.4.3-.7.3-.7.3h-.1v-.7ZM22 27l.9.1a1.7 1.7 0 0 0 0-.2l.1-.8-.4-.5c-.1-.2-.3-.4-.5-.4-.4 0-.7.2-.9.3 0 .7.4 1.4.8 1.5Zm7.1-2.7L27.3 26v.1h-3.8l-.1.9 4.4.9 2.2-1.6a2 2 0 0 1-.3-1.6l-.6-.5Z"/><path fill="#fff" d="M29.6 19.8a3.9 3.9 0 0 1-2.8 1.3 3.8 3.8 0 0 1-.8-.1v1c.2.3.5.6 1 .7l.2.1v.2s0 1 1.2 1.4l.5-.5c-.3-.6-.2-1.2.2-1.5 0 .1-.2 1.5 1 2l.1.1v.2s-.4 1.5 1 2h.2l-.1.3s-.6 1.3.7 2h2.8v-2.2c-1-.1-1.4-.9-1.5-1.4-.5-.1-.8-.3-1-.6-.7-.8-.2-1.5-.2-1.5s0 .7.5 1.2c.2.2.5.4.9.4h.2v.2s.1 1 1 1.2V22c0-.7.3-1.4.5-2h-5.6Zm-7.4 2.1v2.8h.3l.8-2.7-.4-.8-.7.7ZM31 35c.5.1.6 1.9 1.5 2h.2c.3 0 .4 0 .6-.2l-.8-1.2c-.4-.6-.7-1.3-1.5-1.3h-.1l-.4.1c-.4-.2-.7-.2-1-.2l-1 .2-1.8-.2c-.3 0-.5-.3-.6-.4v-.2c-.1-1.5-1.2-2.1-1.6-2.1l-.1-.4-.4.5-1.3-.7 1 1.1-.9.9v.3l.3.3.5-.3h.5c.2 0 .4 0 .4-.2 0 .6-.6 1.5-.2 2.3l.2.5-1.6-.2-.7 1.3c-.3.4-.3.8 0 1l.2.4.5-.7-.1-.1c-.2-.1-.1-.2 0-.4l.4-.7 1.9.4v-.2c.2-.2.4-.2.6-.2h.2l1.5.2c.6 0 1.3-.2 1.6-.5.7 1 2 1.1 2 1.7l-.4 1.7h.7l.3-1.9v-.4c0-.2-.4-.5-.6-.8-.2-.5 0-.7-.3-1.3 0 0 0-.2.2-.2Zm-7-2.6-.2-.1c0-.1 0-.2.2-.2l.1.2-.2.1Z"/><path fill="#fff" d="M21.4 36.6s.6-.3.7-.5L22 36v-.3l.7-.5 1.1.2s-.2-.2-.2-.6l-1-.2-1 .6a1 1 0 0 0-.4 1.2l.2.3Zm7.9 2.9h.7l.6-1.8c-.4 0-1-.4-1.3-.6.2.2.6.5.5.8l-.5 1.6Z"/><path fill="#FFDD2D" d="M34.8 29.5h-16v6c0 2.5 1.8 4 4.4 4 2.2 0 2.8 0 3.6.9.6-.6 1-.8 2-.9l.5-1.6-.8-1a3 3 0 0 1-1 .1 8.6 8.6 0 0 1-1.8-.1h-.1l-.1.2-.2.3-.4-.1-1.5-.4-.2.4.2.2v.3l-.6.9-.4.4-.4-.5-.2-.3c-.3-.3-.4-.8-.2-1.3l-.5.2-.2-.4-.1-.3c-.2-.5-.1-1.3.5-1.8l1.2-.7 1.2.3v-.7l-.6.3-.7-.5s-.3-.2 0-.5l.6-1-1.6-2L24 31l.1-.2.4-.4.3.4.2.3c.7.3 2 1 2 2.3l-.4.2.2.1 1.8.2h.1l1-.2c.3 0 .6 0 .9.2l.4-.1c1 0 1.5.7 1.8 1.3l.2.2.8 1.2.2.3-.3.3c-.1.2-.4.4-.9.4a1.7 1.7 0 0 1-.6 0v.2l-.3 1.6c1.8-.4 3-1.8 3-3.8v-6ZM18.9 29h12.3a2 2 0 0 1-.4-2c-.2 0-.3-.1-.5-.3L28 28.4l-.1.1-4.9-.9a4 4 0 0 1-.5 0 .5.5 0 0 1-.6.4l-.3-.2v-.5a2 2 0 0 1-.8-2v-.1c.1 0 .2 0 .3-.2h-.3a.2.2 0 0 1-.2-.3l.2-.2.9.1v-3l1.3-1.2.8 1.6-.8 2.9h.7l.2.3c0 .2-.1.2-.2.2H23l.3.3H27l1-1a2 2 0 0 1-1.3-1.6 2 2 0 0 1-1-1 2 2 0 0 1-.2-1.2c-.5-.2-1-.6-1.5-1h-5.6c.3.6.5 1.3.5 2V29Z"/><path fill="#000" d="M24 32.1c-.1 0-.2 0-.2.2l.1.1.2-.1-.1-.2ZM34.7 43l-.9-.4.3-1 .3-1s-1.7 1-4 1.6l-1 .3v.7l-2.6.2c-1.3 0-2.5-.2-2.5-.2v-.7l-1.1-.3c-2.3-.7-4-1.6-4-1.6l.3 1 .3 1-1 .4-1 .4c1.2.5 2.8 1.4 4.3 1.8l-.3 1s1.9.8 5 .8c3.2 0 5-.9 5-.9l-.3-1c1.5-.3 3.1-1.2 4.3-1.7l-1-.4Zm-15.8.4 1.6-.5-.5-1.4c.7.3 2.2 1 3 1.2l-.7 2a22 22 0 0 1-3.4-1.3Zm8 3c-1.8 0-3.8-.3-4.4-.5l.9-2.5a11.8 11.8 0 0 0 6.9 0l.9 2.5c-.6.2-2.6.6-4.4.6Zm4.4-1.7-.7-2 3-1.2-.4 1.4 1.5.5c-1 .5-2 1-3.4 1.3ZM26.8 5.1c1.9 0 3.4.6 4.2 1.3 0 0 .2-1.5 1-2.8l-1.4.2-.8-1.7-1.5.8-1.5-1.5L25.4 3l-1.6-1-.7 1.7-1.5-.2a8 8 0 0 1 1 2.8A7 7 0 0 1 26.8 5ZM23 4.4h.4l.2-.4.4-1 1 .5.4.2.3-.3 1-1 1 1 .4.3.3-.2 1-.5.6 1 .2.4h.8l-.4 1a8 8 0 0 0-3.8-.9 8 8 0 0 0-3.8 1l-.4-1.2h.4Zm25.7 20.3c2.4 0 3.2-2.4 3.2-2.6l.3-.8h-.9c-.3 0-3 0-4.9-2.5l-.1-.2c-1.3-1.6-2.4-3-4.5-3.7l.2-.2c1.1-.8 1.8-1.7 2-2.7a4 4 0 0 0-.8-2.8l-.7-.9-.4 1s-.8 1.7-2.3 1.7h-.4c.1-.8 0-1.8-1-2.9A4.7 4.7 0 0 0 35 6.7h-.7l-1 .3.6.8c.5.6 1 1.8.4 2.4a2 2 0 0 1-.9.5c-.6.4-1.6.8-1.6 2 0 .6.6 1.4 1.6 2 3 2 4.9 3.9 5.7 6 1.2 3.4-.4 5.4-2 6.4l-.7.4.6.6c.1 0 .9.7 2 .8h.6c.7 0 1.3 0 1.8-.2l-.5.7c-1 1-2 1.5-3.6 1.5h-.6v.7a2.8 2.8 0 0 0 1.5 2.5c-.7.6-1.4 1.7-1.6 3.6 0 1.6-.5 2.2-.5 2.2l-.6 1h1.2c2 0 3.4-.5 4.4-1.6a5 5 0 0 0 1.2-2 3.2 3.2 0 0 0 2 .8c.6 0 1-.2 1.1-.2l.8-.2-.4-.7s-.6-1.4 0-3.4l.6-2.3c.4.2 1 .4 1.9.4 1.9 0 2.7-1.3 2.7-1.4l.4-.6-.7-.3c-2.2-1-2.7-3.4-2.8-4.8l.7.1h.1Zm1.8 5.3s-.7 1.1-2.2 1.1c-1.8 0-2.5-1.1-2.5-1.1s0 1.4-.6 3.3c-.7 2.4 0 4 0 4l-.8.1h-.6c-1.5-.4-1.9-1.8-1.9-1.8s.2 4.6-5.2 4.6c0 0 .4-.6.6-2.5.2-3.4 2.5-3.8 2.5-3.8s-1.2-.2-1.7-.7c-.9-.7-.8-1.6-.8-1.6a5 5 0 0 0 4-1.8c1-1.2 1.2-2.4 1.2-2.4s-1 .9-3 .9H39c-.9-.1-1.5-.7-1.5-.7 2-1.3 3.4-3.6 2.2-7-1-2.8-3.5-4.9-6-6.4-.8-.5-1.2-1.1-1.2-1.6 0-1.1 1.6-1.2 2.3-2 .8-.9.3-2.3-.4-3.2h.6c.7 0 2 .1 3 1.2 1.3 1.4.7 2.9.7 2.9h.4l.6.1h.2c1.9 0 2.8-2 2.8-2s2 2.5-1 4.5c-.5.4-.8.7-.7 1v.2h.3c2.2.7 3.3 2.2 4.6 4 2.1 2.6 5 2.7 5.4 2.7 0 0-.6 2-2.6 2-1 0-1.5-.3-1.5-.3s-.3 4.8 3.3 6.3Z"/><path fill="#000" d="M44.5 15.1a6 6 0 0 1 1.8 1.7c.5.6 1 1.1 1.6 1.3l.7.2c1 0 2-.7 2.4-1.5l.4-.9h-1s-1.2-.1-2.5-1.5c-.5-.6-1.2-.9-2-.9s-1.4.5-1.5.5l-.9.6 1 .5Zm1.5-1c.4 0 1 .2 1.5.8 1.5 1.5 3 1.6 3 1.6a2 2 0 0 1-1.9 1.1h-.5c-1-.4-1.5-2-3.3-3 0 0 .5-.4 1.2-.4Zm-1.1 9.6c-.6-4.4-3.7-7.5-7.3-9.5l-.9-.4c1 .1 2.8.2 4.2-1 0 0-2 1.5-6.3.1 1.2.8 3.4 1.9 5.5 3.6 5.1 4.5 1.5 9 1.5 9 1.8-2 1.9-4 1.3-5.8 1 1.6 1.6 3.6 1.5 6-.1 3.5-2 6.5-4 9-1 1.1-1.2 2.6-1.2 2.6s.4-1.3 1.5-2.6c2.2-2.5 4-5.2 4.2-9 .3.7 1.2 2.7 2.6 3.4 0 0-1.8-1.1-2.6-5.4ZM17.5 39.9s-.4-.6-.5-2.2c-.2-1.9-.9-3-1.6-3.6l.6-.4c1-1 1-2 1-2.2V31h-.7a4.4 4.4 0 0 1-4-2.3 6.2 6.2 0 0 0 2.3.2c1.2 0 2-.7 2-.8l.6-.6-.7-.4c-1.6-1-3.2-3-2-6.3.9-2.2 2.7-4.2 5.7-6 1-.7 1.6-1.5 1.6-2.2 0-1.1-1-1.6-1.6-1.9a2 2 0 0 1-.9-.5c-.5-.6 0-1.8.4-2.4l.7-.8-1-.2h-.8c-.7 0-2.2.1-3.4 1.3-1 1-1 2.1-1 2.9h-.4c-1.5 0-2.2-1.6-2.2-1.7l-.5-1-.6.9s-1 1.3-.8 2.8c.1 1 .8 2 1.9 2.7l.2.2c-2 .6-3.2 2.1-4.4 3.7l-.2.2a6.5 6.5 0 0 1-4.9 2.5h-.9l.3.8c0 .2.8 2.6 3.2 2.6h.8c0 1.3-.6 3.7-2.8 4.7l-.7.3.4.6s.9 1.4 2.7 1.4c.8 0 1.5-.2 2-.4 0 .6.2 1.4.5 2.2.6 2 0 3.5 0 3.5l-.3.7.7.2 1 .2a3 3 0 0 0 2.1-.8 5 5 0 0 0 1.2 2c1 1 2.5 1.6 4.5 1.6h1l-.6-1Zm-.6.3c-5.3 0-5.2-4.6-5.2-4.6s-.4 1.4-1.9 1.8H8.3s.9-1.7 0-4c-.6-2-.5-3.4-.5-3.4s-.7 1-2.5 1.1c-1.5 0-2.1-1.1-2.1-1.1 3.5-1.5 3.2-6.3 3.2-6.3s-.5.3-1.4.4C3 24 2.2 22 2.2 22c.4 0 3.3-.1 5.4-2.8 1.3-1.7 2.5-3.2 4.7-3.8h.2V15c0-.3-.1-.6-.7-1-3-2-1-4.5-1-4.5s1 2 2.9 2h.9l.3-.1s-.5-1.5.8-3a4 4 0 0 1 3-1.1h.5c-.6.9-1.1 2.3-.4 3.2.7.8 2.4.9 2.4 2 0 .5-.5 1-1.3 1.6a13.8 13.8 0 0 0-6 6.4c-1.2 3.4.2 5.7 2.3 7 0 0-.7.6-1.6.7H14c-2 0-3-1-3-1s.2 1.3 1.3 2.5a5 5 0 0 0 4 1.8s0 .9-.7 1.6c-.6.5-1.8.7-1.8.7s2.3.4 2.5 3.8c.2 1.9.7 2.5.7 2.5Z"/><path fill="#000" d="M5 18.3c.2 0 .5 0 .7-.2.7-.2 1.1-.7 1.6-1.3.4-.5 1-1.2 1.9-1.7l.9-.5-.9-.6s-.7-.5-1.6-.5c-.7 0-1.3.3-1.9.9-1.3 1.4-2.5 1.5-2.6 1.5h-.9l.4.9c.4.8 1.4 1.5 2.4 1.5Zm1.2-3.4a2 2 0 0 1 1.4-.7c.7 0 1.3.4 1.3.4-2 1-2.3 2.6-3.4 3H5a2 2 0 0 1-1.8-1s1.4-.2 3-1.7Zm3 10.9c-.1-2.5.5-4.4 1.5-6a5.4 5.4 0 0 0 1.4 5.6s-3.7-4.4 1.4-9c2-1.6 4.3-2.7 5.5-3.5-4.2 1.4-6.2-.1-6.2-.1 1.3 1.2 3 1.1 4.1 1l-1 .4c-3.4 2-6.6 5.1-7.2 9.5C8 28 6.1 29 6.1 29c1.4-.7 2.4-2.7 2.6-3.3.2 3.7 2 6.4 4.2 8.9a8.1 8.1 0 0 1 1.5 2.6s-.2-1.5-1.2-2.6c-2-2.5-3.9-5.5-4-9Zm16.4-8.9v.9c.3-.4.9-.3.9-.3v1.2s0 .6-.3.9h1.3c-.2-.3-.2-.9-.2-.9v-1.2s.5-.1.8.3v-1h-2.5Zm-.6-5.2.7.4h.2v-.7l-1.5-.7s0 .5.7 1Zm3.6 0c.6-.5.6-1 .6-1l-1.4.7v.8h.1l.7-.5Z"/><path fill="#000" d="M31.2 8.4c0-1.2-2-2.3-4.4-2.3-2.3 0-4.4 1-4.4 2.3v.3l1 5.3-1 .5-2.3 1.4-.8.5c-1 .6-1.1 1.5-.6 2 .2-.8.7-1.6 1.9-1.6.8 0 1.4.4 1.9 1 0 .2.2.3.3.5l.4.6h-6.1c.4 1 .9 2 .9 3v13.6c0 3.3 2.5 4.9 5.2 4.9 2.2 0 2.4-.1 3.6 1 1.2-1.1 1.5-1 3.6-1 2.7 0 5.3-1.6 5.3-4.9V21.9c0-1 .4-2 .8-3h-6.1l.4-.6.4-.5c.5-.6 1-1 1.9-1 1 0 1.7.8 1.8 1.5.5-.4.3-1.3-.6-2l-.8-.4-2.3-1.4-1-.5 1-5.3v-.3Zm-7.9.6 3.3 1.1v5.1L24.2 14l-.9-5Zm.7 10.8c.5.6 1 .9 1.5 1 0 .3-.1.8.1 1.4.2.4.6.7 1 1a2 2 0 0 0 1.4 1.6l-1 1-3.7-.1-.3-.3h.6l.3-.1c0-.2 0-.3-.2-.3l-.7-.1.8-2.9-.8-1.6-1.3 1.3v3l-.9-.2c-.1 0-.2 0-.2.2s0 .3.2.3h.3l-.2.2-.1.1a2 2 0 0 0 .8 2v.5a.5.5 0 0 0 .4.2c.2 0 .4-.2.5-.4h.5l4.9.9 2.4-1.8c.2.2.3.3.5.3a2 2 0 0 0 .4 2H19v-7a6 6 0 0 0-.5-2H24Zm6 6.6L27.8 28l-4.4-.8V27l.1-1 3.7.1h.1l1.8-1.9.6.5c-.1.4 0 1 .3 1.6Zm-7.4-.8.4.5a5.1 5.1 0 0 1 0 1h-.1l-1-.1c-.3-.1-.8-.8-.7-1.5.2 0 .5-.3.9-.3.2 0 .4.2.5.4Zm-.5-.9.1-2.8.7-.7.4.8-.8 2.8H22ZM30 39.5h-.7l.5-1.6c.1-.3-.3-.6-.5-.8l1.3.7-.6 1.7Zm1.6-1.9-.3 1.8h-.7l.3-1.6c.1-.6-1.2-.7-2-1.7-.2.4-.9.5-1.5.5a8 8 0 0 1-1.7-.2c-.2 0-.4 0-.5.3l-.1.1-2-.4-.4.8v.3l.2.1-.5.7-.3-.3c-.2-.3-.2-.7 0-1.1l.8-1.3 1.6.2-.3-.5c-.3-.8.2-1.7.3-2.3 0 .2-.2.2-.4.2h-.5l-.5.3-.3-.3v-.3l.8-.9-.9-1 1.3.6.4-.5c.1.1 0 .4 0 .4.5 0 1.6.6 1.7 2.1v.1c0 .2.3.5.6.5l1.8.2 1-.2c.3 0 .6 0 1 .2l.4-.1c.9 0 1.2.7 1.6 1.3l.8 1.2c-.2.2-.3.3-.6.3h-.2c-.9-.2-1-2-1.5-2.1h-.3c.2.7.1 1 .3 1.4.2.4.5.6.7.8l-.1.4ZM22 36v.2c0 .2-.6.5-.6.5l-.2-.3a1 1 0 0 1 .4-1.2l1-.6 1 .2c0 .4.2.6.2.6l-1.1-.2-.7.5v.3Zm9.8 3.4.3-1.6v-.3l.3.1h.3c.5 0 .8-.2 1-.4l.2-.3-.2-.3a28.5 28.5 0 0 0-1-1.4c-.3-.6-.8-1.3-1.7-1.3h-.5l-1-.1c-.3 0-.6 0-.9.2h-.1l-1.8-.2-.2-.1.4-.2c0-1.2-1.3-2-2-2.3 0-.1 0-.2-.2-.3l-.3-.4-.4.4-.1.2-2.5-1 1.6 2-.6 1c-.3.2 0 .4 0 .4l.6.5.7-.3v.7l-1.2-.3-1.2.7c-.6.5-.7 1.3-.5 1.8l.1.3.2.4.5-.2c-.2.5-.1 1 .2 1.3l.2.3.4.5.4-.4.5-1 .1-.2-.2-.2.2-.4 1.5.4h.4l.2-.2V37h.4l1.6.1h1l1 .9-.6 1.5v.1c-1 .1-1.4.3-2 .9-.8-.8-1.4-1-3.6-1-2.6 0-4.3-1.4-4.3-3.9v-6h15.9v6c0 2-1.2 3.4-3 3.8Zm3.4-19.5c-.2.7-.4 1.4-.4 2v4.5c-1-.1-1-1.1-1-1.2l-.1-.2h-.2c-.4 0-.7-.2-.9-.4-.5-.5-.5-1.2-.5-1.2s-.5.7.1 1.5c.3.3.6.5 1 .6.2.5.6 1.3 1.6 1.4V29H32c-1.3-.7-.7-2-.7-2l.1-.2-.2-.1c-1.4-.5-1-2-1-2v-.2h-.1c-1.2-.6-1-2-1-2-.3.2-.5.8-.2 1.4l-.5.5a1.5 1.5 0 0 1-1.2-1.4v-.2H27a2 2 0 0 1-1-.8v-1h1.2a4 4 0 0 0 2.4-1.2h5.6ZM31 15.3l1.1.6.3.2c-.6.2-1 .5-1.5.9l-.3.3a5 5 0 0 0-.6 1c-.8 1.2-2 2-3 2-1.2 0-2.4-.8-3.2-2 0-.2-.2-.4-.3-.5a8.4 8.4 0 0 0-.5-.8l-1.6-1h.3l1.1-.7 1.1-.6 3 1.6 3-1.6 1.1.6ZM29.5 14 27 15.2v-5L30.3 9l-.8 5Zm-2.7-4.4-3.5-1.4c.3-.8 1.7-1.4 3.5-1.4 1.9 0 3.3.6 3.6 1.4l-3.6 1.4Zm43.8 21.2v-8h4.7v-3H62.5v3h4.7v8h3.4Zm9.5-11h-3.4v11h3.4v-11Zm2.6 0v11h3.1v-6l5.9 6h3v-11h-3.2v6l-5.8-6h-3Zm18.7 6.9 4 4.1h4.3l-5.5-5.7 5.3-5.2h-4.1l-4 4h-1v-4h-3.3v11h3.3v-4.2h1Zm15.1-7.1c-4.4 0-7 2.5-7 5.8 0 3.2 2.6 5.8 7 5.8 4.5 0 7.2-2.6 7.2-5.8 0-3.3-2.7-5.8-7.2-5.8Zm0 9c-2.2 0-3.6-1.4-3.6-3.2 0-1.8 1.4-3.1 3.6-3.1s3.7 1.3 3.7 3c0 1.9-1.5 3.2-3.7 3.2Zm19.7-8.7h-11v11h3.3V27h7.2v-2.4h-7.2v-2h7.7V20Zm12.5 0h-11v11h3.3V27h7.2v-2.4H141v-2h7.7V20Z"/></g><defs><clipPath id="a"><path fill="#fff" d="M0 0h148.8v48H0z"/></clipPath></defs></svg>