<svg xmlns="http://www.w3.org/2000/svg" xmlns:xlink="http://www.w3.org/1999/xlink" fill="none" viewBox="0 0 402 410"><defs><path id="c" stroke-width="5.4" d="M228.3 225.3s14.5-6 1-18.1c0 0-40.8-38.9-52.3-27.6"/><path id="d" stroke-width="5.4" d="M222 231.5s-6.3 14.5-18.2.8c0 0-38.2-41.4-26.8-52.7"/><path id="f" stroke-width="5.4" d="M229.2 217.7s14.6-6 1-18.1c0 0-40.8-38.9-52.3-27.6"/><path id="g" stroke-width="5.4" d="M223 223.9s-6.3 14.5-18.2.7c0 0-38.3-41.3-26.8-52.6"/><path id="h" fill="#fff" d="M0 0h258.1v309.4H0z"/></defs><path fill="#D8E6FF" fill-opacity=".7" fill-rule="evenodd" d="M184.6 28.5c46.9-5.1 87 28.4 122.5 59.3 39.3 34.1 91 70.8 86.6 122.6-4.3 51-66.4 70.5-105.8 103.4-33.3 27.9-59.9 70-103.3 71.2-44 1.1-77.7-34.6-109-65.7-31.3-31.2-68.8-64.7-66.5-109 2.2-43.2 47-67.1 77.1-98.3 31-32.2 54-78.6 98.4-83.5Z" clip-rule="evenodd"/><path fill="#E84563" fill-rule="evenodd" d="M223.3 64.8c31.5 7.2 69.1-19.7 94.5.2 25.5 20 10.6 61.9 22.8 91.8 13.9 33.9 59 57.1 52.8 93.2-6 35.5-47.1 53.9-80.1 68.5-28.2 12.4-60-.1-90 6.7-44 9.9-81.8 53.9-125.2 41.7-45-12.6-83.8-56-90.5-102.1-6.6-45.4 43.6-77.6 58-121.1C80 100.7 50.9 33.9 91.5 13.5 134.6-8 176 54.1 223.4 64.8Z" clip-rule="evenodd" opacity=".1"/><g stroke="#FF7B7E" stroke-opacity=".2" clip-path="url(#a)" filter="url(#b)"><use xlink:href="#c" stroke-width="5.4"/><use xlink:href="#c" stroke-linecap="round" stroke-width="5.4"/><path stroke-linecap="round" stroke-width="4.7" d="M185.4 168.4s5.4-25.1-17.9-32c-14.5-5.5-21.4-8.5-22.3-17-.9-8.5 6.4-9.7 8.4-6.6"/><path stroke-linecap="round" stroke-width="5.4" d="M219.7 187.4s11.4-16 8.5-31.7c-2-10 3-14.5 7-21 4-6.7 4-25.2-8.4-36.6-12.4-11.4-25.7-6.1-25.7-6.1s-6.8 2.6 4.5 7.5c11.2 4.9 12 16.4 12.6 27.8"/><path stroke-linecap="round" stroke-width="5.4" d="M201.3 117.3s-4.2 18.7 18 30.4m31.8 75.9L235.5 239m21.9-4.3-13.2 13m19.3-1.7-10.7 10.5m17.8-.7s45 12 18.7 37.8"/><use xlink:href="#d" stroke-width="5.4"/><use xlink:href="#d" stroke-linecap="round" stroke-width="5.4"/><path stroke-linecap="round" stroke-width="4.7" d="M165.7 187.8s-25.2 5-31.8-18.3c-5.3-14.6-8.2-21.5-16.7-22.5-8.4-1-9.7 6.2-6.7 8.3"/><path stroke-linecap="round" stroke-width="5.4" d="M184.2 222.4s-16.2 11.1-31.8 8c-10-2.1-14.5 2.8-21.2 6.8-6.7 4-25.2 3.7-36.4-9-11.2-12.5-5.7-25.8-5.7-25.8s2.7-6.7 7.4 4.6 16.3 12.3 27.6 13"/><path stroke-linecap="round" stroke-width="5.4" d="M114.4 203s18.7-4 30.2 18.4m75.4 32.9 15.6-15.4m-4.6 21.9 13.2-13.1m-1.9 19.2 10.5-10.5m-.8 17.9s11.2 45 37.4 19.2"/></g><g stroke="#FF002E" clip-path="url(#e)"><use xlink:href="#f" stroke-width="5.4"/><use xlink:href="#f" stroke-linecap="round" stroke-width="5.4"/><path stroke-linecap="round" stroke-width="4.7" d="M186.4 160.7s5.3-25-18-32c-14.4-5.5-21.3-8.5-22.2-17-1-8.4 6.3-9.7 8.4-6.6"/><path stroke-linecap="round" stroke-width="5.4" d="M220.7 179.7s11.3-16 8.5-31.6c-2-10 3-14.5 7-21.1 4-6.6 4-25.2-8.4-36.5C215.3 79 202 84.4 202 84.4s-6.7 2.6 4.5 7.5c11.3 4.8 12 16.4 12.7 27.7"/><path stroke-linecap="round" stroke-width="5.4" d="M202.3 109.7s-4.3 18.6 18 30.4M252 216l-15.5 15.4m21.9-4.4L245 240.1m19.4-1.8L253.7 249m17.9-.8s44.9 12 18.7 37.8"/><use xlink:href="#g" stroke-width="5.4"/><use xlink:href="#g" stroke-linecap="round" stroke-width="5.4"/><path stroke-linecap="round" stroke-width="4.7" d="M166.6 180.2s-25.2 5-31.8-18.3c-5.2-14.6-8.1-21.6-16.6-22.6-8.5-1-9.8 6.3-6.7 8.4"/><path stroke-linecap="round" stroke-width="5.4" d="M185.1 214.8s-16.1 11.1-31.7 8c-10-2.1-14.5 2.8-21.2 6.8-6.7 4-25.2 3.7-36.4-9C84.6 208 90 194.9 90 194.9s2.7-6.7 7.5 4.6c4.7 11.3 16.2 12.3 27.6 13"/><path stroke-linecap="round" stroke-width="5.4" d="M115.3 195.4s18.8-4 30.2 18.4m75.5 32.9 15.5-15.4m-4.6 21.9 13.3-13.1m-2 19.2 10.6-10.5m-.9 17.8s11.2 45.1 37.4 19.3"/></g><defs><clipPath id="a"><use xlink:href="#h" transform="scale(-1 1) rotate(44.6 -101.2 -220.3)"/></clipPath><clipPath id="e"><use xlink:href="#h" transform="scale(-1 1) rotate(44.6 -92.4 -225.3)"/></clipPath><filter id="b" width="417" height="417.6" x="-8" y="-.4" color-interpolation-filters="sRGB" filterUnits="userSpaceOnUse"><feFlood flood-opacity="0" result="BackgroundImageFix"/><feBlend in="SourceGraphic" in2="BackgroundImageFix" result="shape"/><feGaussianBlur result="effect1_foregroundBlur_2606_17233" stdDeviation="4"/></filter></defs></svg>