<svg xmlns="http://www.w3.org/2000/svg" xmlns:xlink="http://www.w3.org/1999/xlink" fill="none" viewBox="0 0 402 402"><defs><path id="b" stroke-width="5.4" d="M229.2 217.7s14.6-6 1-18.1c0 0-40.8-38.9-52.3-27.6"/><path id="c" stroke-width="5.4" d="M223 223.9s-6.3 14.5-18.2.7c0 0-38.3-41.3-26.8-52.6"/></defs><path fill="#D8E6FF" fill-opacity=".6" fill-rule="evenodd" d="M195.4 43.5c47.2-10.1 106.9-15.7 137.4 22 30.3 37.3 0 91.3-7 139-5.2 36.9-6.8 73.2-27.8 103.7-26.4 38.3-56.6 88.2-102.6 85.7-45.8-2.5-59.2-63.8-92.1-96.2C69.5 264.4 2.3 252.2 3 204.5c.7-47.8 66.5-60 103-90.5 30.2-25.4 51-62.3 89.4-70.5Z" clip-rule="evenodd"/><path fill="#E84563" fill-rule="evenodd" d="M194.8 78c31.5-6.9 59.2-43 89.4-31.9 28.5 10.5 22.6 55.4 40.5 80 20.8 28.5 73.2 39.6 72.3 75-1 35.7-54.6 44.3-76.2 72.8-18 23.7-17.2 58-38.7 78.5-23.7 22.6-54.5 42.7-87.3 41.6-32.6-1.2-57.5-28.2-83.8-47.5-24-17.5-57.5-31.3-63.2-60.4-6-30.6 39.4-54.2 34.7-85-6-40-76.4-63.2-62.7-101.2C32 65.5 89.5 85.7 125.7 81.2c23.3-3 46.2 2 69.1-3.1Z" clip-rule="evenodd" opacity=".1"/><g stroke="#FF002E" clip-path="url(#a)"><use xlink:href="#b" stroke-width="5.4"/><use xlink:href="#b" stroke-linecap="round" stroke-width="5.4"/><path stroke-linecap="round" stroke-width="4.7" d="M186.4 160.7s5.3-25-18-32c-14.4-5.5-21.3-8.5-22.2-17-1-8.4 6.3-9.7 8.4-6.6"/><path stroke-linecap="round" stroke-width="5.4" d="M220.7 179.7s11.3-16 8.5-31.6c-2-10 3-14.5 7-21.1 4-6.6 4-25.2-8.4-36.5C215.3 79 202 84.4 202 84.4s-6.7 2.6 4.5 7.5c11.3 4.8 12 16.4 12.7 27.7"/><path stroke-linecap="round" stroke-width="5.4" d="M202.3 109.7s-4.3 18.6 18 30.4M252 216l-15.5 15.4m21.9-4.4L245 240.1m19.4-1.8L253.7 249m17.9-.8s44.9 12 18.7 37.8"/><use xlink:href="#c" stroke-width="5.4"/><use xlink:href="#c" stroke-linecap="round" stroke-width="5.4"/><path stroke-linecap="round" stroke-width="4.7" d="M166.6 180.2s-25.2 5-31.8-18.3c-5.2-14.6-8.1-21.6-16.6-22.6-8.5-1-9.8 6.3-6.7 8.4"/><path stroke-linecap="round" stroke-width="5.4" d="M185.1 214.8s-16.1 11.1-31.7 8c-10-2.1-14.5 2.8-21.2 6.8-6.7 4-25.2 3.7-36.4-9C84.6 208 90 194.9 90 194.9s2.7-6.7 7.5 4.6c4.7 11.3 16.2 12.3 27.6 13"/><path stroke-linecap="round" stroke-width="5.4" d="M115.3 195.4s18.8-4 30.2 18.4m75.5 32.9 15.5-15.4m-4.6 21.9 13.3-13.1m-2 19.2 10.6-10.5m-.9 17.8s11.2 45.1 37.4 19.3"/></g><defs><clipPath id="a"><path fill="#fff" d="M0 0h258.1v309.4H0z" transform="scale(-1 1) rotate(44.6 -92.4 -225.3)"/></clipPath></defs></svg>