<svg xmlns="http://www.w3.org/2000/svg" fill="none" viewBox="0 0 1056 153"><path fill="#E30029" d="M51 0h1005l-51 153H0L51 0Z"/><path fill="#fff" d="M522 43.4c-2-1.9-10.1-10.4-32.7-10.4C466 33 457 44.6 457 58.3c0 13.7 7 21.8 23.4 25.3l10 2c7.9 1.6 9.9 2 9.9 4.6 0 3.5-4 4.6-9 4.6s-14-1.6-24.9-10.2L454 101.8c4 4 17 13.2 36.3 13.2 19.4 0 30.8-7.6 33.3-23.3 1.2-7.6-.5-15.2-6-20.2-5.4-5-14.4-8.6-28.3-10.7-14-2-9.4-9.6 0-8.6 9 1 13.5 3.8 19.6 7.6l.8.5 12.4-16.7-.1-.2Zm313 0c-2-1.9-10.1-10.4-32.7-10.4C779 33 770 44.6 770 58.3c0 13.7 7 21.8 23.4 25.3l10 2c7.9 1.6 9.9 2 9.9 4.6 0 3.5-4 4.6-9 4.6s-14-1.6-24.9-10.2L767 101.8c4 4 17 13.2 36.3 13.2 19.4 0 30.8-7.6 33.3-23.3 1.2-7.6-.5-15.2-6-20.2-5.4-5-14.4-8.6-28.3-10.7-14-2-9.4-9.6 0-8.6 9 1 13.5 3.8 19.6 7.6l.8.5 12.4-16.7-.1-.2ZM210 35h23v58h30v20h-53V35Zm388 0h-66v20h21v58h23V55h22V35Zm73 0h-59v78h59V93h-36v-9h36V63h-36v-8h36V35Z"/><path fill="#fff" fill-rule="evenodd" d="M422.8 35H372v78h51.5c11.9 0 21.5-9.6 21.5-21.5 0-9.3-6.6-17.2-15.3-19A18 18 0 0 0 443 55.2c0-11.1-9-20.2-20.2-20.2ZM415 54h-20v10h20a5 5 0 0 0 0-10Zm-20 29h20.5a5.5 5.5 0 1 1 0 11H395V83Zm338-48h-45v78h23V88h9.2l11.8 25h26l-13.8-27.6A25 25 0 0 0 758 63v-3a25 25 0 0 0-25-25Zm-4.5 20H711v13h17.5a6.5 6.5 0 1 0 0-13ZM358 74c0 22.6-15.5 41-43 41s-43-18.4-43-41 18-41 43-41 43 18.4 43 41Zm-24 0c0 11-6.3 20-19 20s-19-9-19-20 6.3-20 19-20 19 9 19 20Z" clip-rule="evenodd"/></svg>