<svg xmlns="http://www.w3.org/2000/svg" viewBox="0 0 28 28"><path fill="#2C3036" d="M16.7 16.7c-2.2 2.3-2.4 5.1-2.5 11.3 5.7 0 9.7 0 11.8-2 2-2 2-6.3 2-11.8-6.2.2-9 .3-11.3 2.5M0 14.2c0 5.5 0 9.7 2 11.8 2 2 6 2 11.8 2-.2-6.2-.3-9-2.5-11.3C9 14.5 6.2 14.3 0 14.2M13.8 0C8.1 0 4.2 0 2 2 0 4 0 8.3 0 13.8c6.2-.2 9-.3 11.3-2.5C13.5 9 13.7 6.2 13.8 0m2.9 11.3C14.5 9 14.3 6.2 14.2 0c5.7 0 9.7 0 11.8 2 2 2 2 6.3 2 11.8-6.2-.2-9-.3-11.3-2.5"/><path fill="#fff" d="M28 14.2v-.3c-6.2-.3-9-.4-11.3-2.6C14.5 9 14.3 6.2 14.2 0h-.4c-.2 6.2-.3 9-2.5 11.3C9 13.5 6.2 13.7 0 13.8v.4c6.2.2 9 .3 11.3 2.5 2.2 2.3 2.4 5.1 2.5 11.3h.3c.2-6.2.4-9 2.6-11.3 2.3-2.2 5.1-2.4 11.3-2.5"/></svg>