<svg xmlns="http://www.w3.org/2000/svg" fill="none" viewBox="0 0 22 22"><g clip-path="url(#a)"><path fill="#fff" d="M11 16.5a5.5 5.5 0 1 0 0-11 5.5 5.5 0 0 0 0 11Z"/><path fill="url(#b)" d="M11 5.5h9.5a11 11 0 0 0-19 0l4.7 8.3A5.5 5.5 0 0 1 11 5.4Z"/><path fill="#1A73E8" d="M11 15.4a4.4 4.4 0 1 0 0-8.8 4.4 4.4 0 0 0 0 8.8Z"/><path fill="url(#c)" d="M15.8 13.8 11 22a11 11 0 0 0 9.5-16.5H11a5.5 5.5 0 0 1 4.8 8.3Z"/><path fill="url(#d)" d="M6.2 13.8 1.5 5.5A11 11 0 0 0 11 22l4.8-8.2a5.5 5.5 0 0 1-9.6 0Z"/></g><defs><linearGradient id="b" x1="1.5" x2="20.5" y1="6.9" y2="6.9" gradientUnits="userSpaceOnUse"><stop stop-color="#D93025"/><stop offset="1" stop-color="#EA4335"/></linearGradient><linearGradient id="c" x1="9.5" x2="19" y1="21.9" y2="5.4" gradientUnits="userSpaceOnUse"><stop stop-color="#FCC934"/><stop offset="1" stop-color="#FBBC04"/></linearGradient><linearGradient id="d" x1="12.2" x2="2.7" y1="21.3" y2="4.8" gradientUnits="userSpaceOnUse"><stop stop-color="#1E8E3E"/><stop offset="1" stop-color="#34A853"/></linearGradient><clipPath id="a"><path fill="#fff" d="M0 0h22v22H0z"/></clipPath></defs></svg>