<svg xmlns="http://www.w3.org/2000/svg" fill="none" viewBox="0 0 22 22"><g clip-path="url(#a)"><path fill="url(#b)" d="M9.2 21.9C4 20.9 0 16.4 0 11 0 5 5 0 11 0a11 11 0 0 1 1.8 21.9l-.6-.5H9.8l-.6.5Z"/><path fill="#fff" d="m15.3 14 .5-3h-3V8.9c0-1 .4-1.6 1.7-1.6H16V4.5a18 18 0 0 0-2.5-.2c-2.5 0-4.3 1.5-4.3 4.3V11H6.5v3h2.7v7.8a10.1 10.1 0 0 0 3.7 0v-7.7h2.4Z"/></g><defs><linearGradient id="b" x1="11" x2="11" y1="21.2" y2="0" gradientUnits="userSpaceOnUse"><stop stop-color="#0062E0"/><stop offset="1" stop-color="#19AFFF"/></linearGradient><clipPath id="a"><path fill="#fff" d="M0 0h22v22H0z"/></clipPath></defs></svg>