<svg xmlns="http://www.w3.org/2000/svg" fill="none" viewBox="0 0 32 32"><g clip-path="url(#a)"><g filter="url(#b)" opacity=".5"><path fill="#000" d="M30.6 16.5a13.7 13.7 0 0 1-4.3 10A14.6 14.6 0 0 1 16 30.6a15 15 0 0 1-10.3-4.1 14.1 14.1 0 0 1-4.3-10 14 14 0 0 1 4.3-10 14.8 14.8 0 0 1 23.8 4.6c.7 1.7 1 3.6 1 5.4Z"/></g><path fill="url(#c)" d="M31.1 15.3A15.3 15.3 0 0 1 16 30.5 15.1 15.1 0 0 1 .8 15.3 15.3 15.3 0 0 1 16 0a15 15 0 0 1 15.1 15.3Z"/><path fill="url(#d)" d="M30 15.3a14 14 0 0 1-14 14 14 14 0 0 1-14-14 14 14 0 0 1 14-14 14 14 0 0 1 14 14Z"/><path fill="#F4F2F3" d="M16 2c-.1 0-.2 0-.2.2v2.3a.2.2 0 1 0 .4 0V2.2c0-.2 0-.2-.2-.2Zm-1.3 0c-.2 0-.3.2-.3.3l.1 1a.2.2 0 1 0 .5 0l-.2-1-.1-.3Zm2.6 0-.1.2-.1 1a.2.2 0 1 0 .4 0v-1a.2.2 0 0 0-.2-.2Zm-4 .2c-.2 0-.2.2-.2.3l.5 2.3a.2.2 0 1 0 .4 0l-.5-2.4-.2-.2Zm5.4 0-.2.2-.5 2.3c0 .1 0 .2.2.3 0 0 .2 0 .2-.2l.5-2.3a.2.2 0 0 0-.2-.3Zm-6.7.4c-.2 0-.3.2-.2.3l.3 1h.2c.2 0 .2-.1.2-.2l-.3-1H12Zm8 0-.2.1-.3 1c0 .1 0 .2.2.3 0 0 .2 0 .2-.2l.3-1a.2.2 0 0 0-.2-.2Zm-9.3.5c-.2 0-.2.2-.2.3l1 2.1c0 .1.1.2.2.1.1 0 .2-.1.1-.2l-1-2.2-.1-.1Zm10.6 0-.2.1-1 2.2s0 .2.2.2h.2l1-2.2a.2.2 0 0 0-.2-.3Zm-11.8.6h-.1V4l.4.9h.3s.1-.1 0-.2l-.4-.9h-.2Zm13 0-.2.1-.5.9.1.3.3-.1.5-.9a.2.2 0 0 0-.2-.3Zm-14.2.8c-.2 0-.2.2-.1.3l1.4 1.9s.2.1.2 0c.1 0 .2-.2 0-.3L8.6 4.5h-.2Zm15.4 0h-.2l-1.4 2v.2h.3l1.4-2a.2.2 0 0 0-.1-.2Zm-16.4.8h-.1c-.1.2-.1.3 0 .4l.6.7h.3v-.3l-.7-.7h-.1Zm17.4 0-.1.1-.7.7v.3h.3l.7-.7a.2.2 0 0 0-.2-.4Zm-18.4 1h-.1v.3l1.7 1.6h.3V8L6.5 6.3h-.2Zm19.4 0h-.1L23.8 8v.3h.3l1.7-1.5a.2.2 0 0 0-.1-.4Zm-20.2 1-.2.1v.3l.8.6h.3V8l-.8-.6h-.1Zm21 0v.1l-.9.6v.3h.3l.8-.6a.2.2 0 0 0-.2-.3ZM4.7 8.6l-.2.1.1.3 2 1.2.3-.1v-.3l-2-1.2h-.2Zm22.6 0h-.1l-2 1.2a.2.2 0 0 0 .2.4l2-1.2a.2.2 0 0 0-.1-.4ZM4.1 9.7l-.2.1.1.3 1 .4h.2l-.1-.4-1-.4Zm23.8 0-1 .5a.2.2 0 0 0 .2.3l.9-.4a.2.2 0 0 0-.1-.4ZM3.6 11l-.2.1.1.3 2.3.7.2-.1-.1-.3-2.2-.7h-.1Zm24.8 0-2.3.7a.2.2 0 0 0 .1.4l2.3-.7a.2.2 0 0 0 0-.4ZM3.3 12.3l-.2.2.1.2 1 .2.2-.1-.1-.3-1-.2Zm25.4 0-1 .2s-.2.2-.1.3c0 .1.1.2.2.1l1-.2a.2.2 0 0 0 0-.4ZM3 13.7s-.2 0-.2.2l.2.2 2.4.2.2-.1c0-.2 0-.3-.2-.3l-2.3-.2Zm26 0-2.4.2-.2.3.2.2L29 14l.2-.2-.2-.2ZM3 15.1c-.1 0-.2 0-.2.2 0 0 0 .2.2.2h1l.2-.2c0-.2-.1-.2-.2-.2H3Zm25 0s-.2 0-.2.2l.2.2h1l.2-.2c0-.2 0-.2-.2-.2h-1ZM5.4 16l-2.4.3-.2.2c0 .2.1.2.3.2l2.3-.2.2-.2-.2-.2Zm21.2 0-.2.3s0 .2.2.2l2.3.2.3-.1c0-.2-.1-.3-.2-.3l-2.4-.2ZM4.2 17.7l-1 .2s-.2.1-.1.2l.2.2 1-.2s.2-.2.1-.3l-.2-.1Zm23.6 0-.2.1.1.3 1 .2c.1 0 .2 0 .2-.2l-.1-.2-1-.2Zm-22 .8-2.3.7a.2.2 0 0 0 .2.4l2.2-.7a.2.2 0 0 0 0-.4Zm20.3 0-.1.1v.3l2.3.7.3-.1-.1-.3-2.3-.7ZM5 20l-1 .4a.2.2 0 0 0 .2.4l.9-.4A.2.2 0 0 0 5 20Zm22 0-.2.1.1.3 1 .4.2-.1-.1-.3-1-.4Zm-20.2.4h-.2l-2 1.2a.2.2 0 0 0 .2.4l2-1.2a.2.2 0 0 0 0-.4Zm18.4 0-.1.1v.3l2 1.2h.4l-.1-.4-2-1.1h-.2Zm-19 1.8-.9.6v.3h.3l.8-.6a.2.2 0 0 0-.1-.3Zm19.5 0h-.1v.3l.8.6h.3v-.3l-.8-.6h-.2Zm-17.6 0h-.2L6.2 24v.3h.2l1.8-1.6a.2.2 0 0 0-.1-.4Zm15.8 0-.1.1v.3l1.7 1.6h.3v-.3l-1.7-1.6h-.2ZM9.7 23.7l-.2.1-1.3 2c-.1 0 0 .2 0 .2h.3l1.4-2a.2.2 0 0 0-.2-.3Zm12.6 0h-.1c-.1.2-.2.3 0 .4l1.3 1.9h.3v-.3l-1.4-1.9h-.1ZM7.9 24l-.1.1-.7.8v.2h.3l.7-.7a.2.2 0 0 0-.2-.4Zm16.2 0-.2.1v.3l.7.7c0 .1.2.1.2 0 .1 0 .1-.2 0-.2l-.6-.8h-.1Zm-12.4.9h-.2l-1 2.2.1.3h.3l1-2.2a.2.2 0 0 0-.2-.3Zm8.6 0c-.1 0-.2.2-.1.3l1 2.1c0 .1 0 .2.2.1 0 0 .1-.1 0-.2l-.9-2.2-.2-.1Zm-10.3.6-.2.1-.5.9v.3l.4-.1.5-.9a.2.2 0 0 0-.2-.3Zm12 0c-.2.1-.2.2-.2.3l.5.9h.3c.1 0 .1-.1 0-.2l-.4-.9H22Zm-8.2 0-.2.2L13 28l.1.3c.2 0 .3 0 .3-.2l.5-2.3a.2.2 0 0 0-.2-.2Zm4.4 0-.2.3.5 2.3.2.2c.2 0 .2-.2.2-.3l-.5-2.3-.2-.1Zm-2.2.3c-.1 0-.2 0-.2.2v2.4a.2.2 0 1 0 .4 0V26c0-.1 0-.2-.2-.2Zm-3.7.8-.2.1-.3 1 .1.2.3-.1.3-1a.2.2 0 0 0-.2-.2Zm7.4 0c-.2 0-.2.1-.2.2l.3 1 .3.1s.2-.1.1-.3l-.3-.9-.2-.1Zm-5 .5s-.2 0-.2.2v1a.2.2 0 1 0 .3 0l.1-1a.2.2 0 0 0-.2-.2Zm2.6 0c-.2 0-.3.1-.3.2l.1 1a.2.2 0 1 0 .5 0l-.1-1-.2-.2Z"/><g filter="url(#e)" opacity=".4"><path fill="#000" d="m25.5 7-11.1 6.6-7 11.1 10.3-7.6 7.8-10Z"/></g><path fill="#FF5150" d="m17.6 17-3.2-3.4 11.3-7.7-8.1 11Z"/><path fill="#F1F1F1" d="m17.6 17-3.2-3.4-8.1 11 11.3-7.7Z"/><path fill="#000" d="m6.3 24.6 11.3-7.7 8.1-11L6.3 24.6Z" opacity=".2"/></g><defs><filter id="b" width="31.5" height="30.6" x=".3" y="1.2" color-interpolation-filters="sRGB" filterUnits="userSpaceOnUse"><feFlood flood-opacity="0" result="BackgroundImageFix"/><feBlend in="SourceGraphic" in2="BackgroundImageFix" result="shape"/><feGaussianBlur result="effect1_foregroundBlur_2319_17099" stdDeviation=".6"/></filter><filter id="e" width="18.8" height="18.3" x="7" y="6.7" color-interpolation-filters="sRGB" filterUnits="userSpaceOnUse"><feFlood flood-opacity="0" result="BackgroundImageFix"/><feBlend in="SourceGraphic" in2="BackgroundImageFix" result="shape"/><feGaussianBlur result="effect1_foregroundBlur_2319_17099" stdDeviation=".2"/></filter><radialGradient id="d" cx="0" cy="0" r="1" gradientTransform="matrix(15.1499 0 0 15.2332 16 13.2)" gradientUnits="userSpaceOnUse"><stop stop-color="#06C2E7"/><stop offset=".3" stop-color="#0DB8EC"/><stop offset=".5" stop-color="#12AEF1"/><stop offset=".8" stop-color="#1F86F9"/><stop offset="1" stop-color="#107DDD"/></radialGradient><linearGradient id="c" x1="16" x2="16" y1="30.5" y2="0" gradientUnits="userSpaceOnUse"><stop stop-color="#BDBDBD"/><stop offset="1" stop-color="#fff"/></linearGradient><clipPath id="a"><path fill="#fff" d="M0 0h32v32H0z"/></clipPath></defs></svg>