<svg xmlns="http://www.w3.org/2000/svg" fill="none" viewBox="0 0 32 32"><rect width="31" height="31" x=".5" y=".5" stroke="#F5F5F6" rx="5.5"/><path fill="#fff" d="m24.5 7.6-.6.2a397.8 397.8 0 0 0-8.5 3.6L7.3 15l-.5.2-.3.4a1 1 0 0 0-.2.6c.1.9 1 1.1 1 1.1l4 1.3a1044 1044 0 0 0 1.7 5.6l.2.2h.2c.5.2.8 0 .8 0l2.4-2.3 4 3c.7.4 1.3.2 1.6 0l.5-.7 3-15v-.9a1 1 0 0 0-1.2-.8Zm0 1h.2v.5L22 24l-.2.2c-.1.2-.3.2-.7 0L16.7 21h-.1l-1.3-1 7.2-8.5a.4.4 0 0 0-.6-.6l-10.4 7-3.9-1.4s-.4-.2-.4-.4l.1-.2h.3v-.1l8.1-3.5a9537.4 9537.4 0 0 1 8.8-3.7Zm-4.7 4.7-5.5 6.4v.2l-.8 3.2-1.4-4.7 7.7-5.1ZM15 20.7l1 .8-1.5 1.3.5-2Z"/></svg>