<svg width="167" height="27" viewBox="0 0 167 27" fill="none" xmlns="http://www.w3.org/2000/svg">
<path d="M4.0517 15.4927C4.3003 15.4927 4.50183 15.2945 4.50183 15.05C4.50183 14.8056 4.3003 14.6074 4.0517 14.6074C3.80309 14.6074 3.60156 14.8056 3.60156 15.05C3.60156 15.2945 3.80309 15.4927 4.0517 15.4927Z" fill="#FFC900"/>
<path d="M10.1074 18.335C10.2968 18.7701 10.4231 19.143 10.6125 19.5781C11.1176 20.6968 11.8752 21.7534 12.696 22.6857C13.4536 23.5558 14.4007 24.3017 15.4108 24.9232C15.8528 25.234 16.421 25.4826 16.9261 25.669C17.6206 25.9798 18.2519 26.1662 18.9464 26.3527C20.0829 26.6635 21.3456 26.6635 22.482 26.6013C23.8079 26.477 25.0706 26.1662 26.2702 25.7312C27.4066 25.2961 28.48 24.7367 29.4901 24.1152C29.5533 24.0531 29.6164 24.0531 29.6795 23.9909C29.8058 24.1774 29.9952 24.3017 30.1215 24.426C30.5634 24.861 31.0685 25.1718 31.5736 25.5447C32.1418 25.9176 32.8363 26.2284 33.4677 26.477C34.099 26.7256 34.7304 26.7878 35.4249 26.9121C35.9931 26.9742 36.6245 27.0364 37.1927 26.9742C37.8872 26.9742 38.5186 26.8499 39.213 26.6635C39.9075 26.5392 40.602 26.2906 41.2334 26.0419C43.38 25.234 45.3372 23.9909 47.0419 22.5614C47.2944 22.9965 47.547 23.3694 47.8627 23.7423C48.1783 24.1774 48.5572 24.5503 48.9991 24.861C49.5042 25.2961 50.0724 25.6069 50.7038 25.9176C51.272 26.1662 51.7771 26.3527 52.4084 26.477C52.9767 26.6013 53.608 26.6635 54.2394 26.6635C54.8707 26.6635 55.5021 26.5392 56.1335 26.4149C56.7648 26.2906 57.3962 26.1041 58.0275 25.8555C60.3636 24.9232 62.3208 23.4937 64.0254 21.6291C64.278 21.3805 64.5305 21.0697 64.7831 20.759C65.0356 21.0076 65.2882 21.3183 65.5407 21.567C65.9195 22.002 66.3615 22.3749 66.8666 22.6857C67.4348 23.1208 68.0661 23.5558 68.6975 23.8666C69.2657 24.1774 69.8339 24.426 70.4653 24.6746C71.0967 24.9232 71.728 25.0475 72.3594 25.1097C73.6852 25.2961 75.0111 25.1097 76.3369 24.8611C77.5365 24.6124 78.673 24.1774 79.7463 23.7423C80.9458 23.2451 82.0192 22.6236 83.0925 21.8777C84.0395 21.2562 84.8603 20.5104 85.681 19.7024C85.8073 19.8888 85.8704 20.1375 85.9967 20.3239C86.3124 20.9454 86.6912 21.5048 87.07 22.002C87.3857 22.4371 87.7645 22.81 88.1433 23.1829C88.5853 23.5558 89.0272 23.9288 89.5323 24.2395C89.9743 24.5503 90.4794 24.7989 90.9844 24.9854C91.6158 25.234 92.2472 25.4826 92.9417 25.6069C94.1412 25.8555 95.3408 25.8555 96.5404 25.7312C97.1717 25.669 97.8031 25.5447 98.4345 25.3583C99.129 25.1718 99.8235 24.8611 100.518 24.5503C101.654 24.0531 102.665 23.3694 103.612 22.5614C104.369 22.002 105.064 21.3184 105.695 20.6347C105.821 20.759 105.948 20.9454 106.074 21.0697C106.453 21.5048 106.895 21.8777 107.337 22.2506C108.284 22.9965 109.42 23.4937 110.62 23.8045C111.251 23.9288 111.882 23.9909 112.514 24.0531C113.082 24.1152 113.713 24.0531 114.282 23.9909C114.913 23.9288 115.544 23.8045 116.176 23.618C116.87 23.4315 117.501 23.1829 118.133 22.9343C119.269 22.4993 120.343 21.9399 121.416 21.3184C122.552 20.6347 123.626 19.7645 124.573 18.8944C125.015 18.5215 125.457 18.0864 125.835 17.6514C125.962 17.7757 126.088 17.8378 126.214 17.9621C126.656 18.335 127.161 18.6458 127.73 18.9566C128.298 19.2052 128.866 19.4538 129.434 19.6402C130.002 19.8267 130.634 19.8889 131.265 19.951C131.96 20.0132 132.654 19.951 133.349 19.8889C133.917 19.8267 134.422 19.7024 134.927 19.5159C135.495 19.3295 136.063 19.0809 136.569 18.7701C137.074 18.5215 137.516 18.2107 137.958 17.9C138.526 17.4649 139.094 17.0298 139.599 16.5326C139.725 16.4705 139.788 16.3462 139.852 16.2219C139.852 16.284 139.915 16.284 139.915 16.3462C140.294 16.8434 140.799 17.2784 141.304 17.7135C141.746 18.0864 142.251 18.4593 142.819 18.708C143.072 18.8323 143.387 18.9566 143.703 19.0809C143.955 19.2052 144.208 19.2673 144.461 19.3295C145.029 19.5159 145.66 19.5781 146.291 19.5781C147.049 19.5781 147.807 19.4538 148.501 19.3295C149.069 19.2052 149.638 19.0187 150.206 18.7701C150.585 18.5837 150.9 18.3972 151.216 18.2107C151.405 18.335 151.532 18.4593 151.721 18.5837C152.1 18.8944 152.542 19.143 152.921 19.3916C153.363 19.6402 153.868 19.8267 154.373 20.0753C155.446 20.5104 156.583 20.6968 157.719 20.8211C158.666 20.9455 159.676 20.9455 160.623 20.8833C161.191 20.8833 161.76 20.8211 162.265 20.759C163.149 20.6347 164.033 20.5104 164.853 20.1996C165.043 20.1375 165.295 20.0132 165.485 19.951C165.737 19.8267 165.99 19.6402 166.242 19.3916C166.369 19.2673 166.432 19.143 166.558 19.0187C166.684 18.8323 166.811 18.6458 166.874 18.3972C166.937 18.1486 166.937 17.9 167 17.6514C167 17.3406 166.937 17.0298 166.747 16.7812C166.495 16.4083 166.116 16.0976 165.674 15.9732C165.232 15.8489 164.727 15.9111 164.285 16.1597C164.096 16.284 163.843 16.4705 163.717 16.6569C163.654 16.6569 163.528 16.7191 163.464 16.7191C163.022 16.8434 162.58 16.9055 162.139 17.0298C161.823 17.092 161.57 17.092 161.255 17.1541C160.623 17.2163 159.992 17.2163 159.424 17.2163C158.855 17.2163 158.287 17.1541 157.656 17.092C157.277 17.0298 156.835 16.9677 156.456 16.8434C156.077 16.7812 155.699 16.5948 155.32 16.4705C154.815 16.2219 154.31 15.9732 153.805 15.6625C153.931 15.476 154.057 15.2896 154.247 15.1031C154.815 14.233 155.32 13.3007 155.825 12.4305C156.267 11.6226 156.646 10.8146 157.025 9.94444C157.277 9.26076 157.53 8.63924 157.593 7.89341C157.593 7.45834 157.53 6.96112 157.466 6.52605C157.403 6.21529 157.277 5.90452 157.151 5.65591C157.025 5.4073 156.961 5.22085 156.835 5.03439C156.583 4.59932 156.267 4.16425 155.951 3.79134C155.636 3.41842 155.383 3.10766 155.004 2.79689C154.625 2.42398 154.12 2.23752 153.615 2.05106C153.552 2.05106 153.426 1.98891 153.363 1.98891C153.11 1.92676 152.858 1.92676 152.668 1.92676C152.352 1.92676 152.037 1.98891 151.658 2.05106C151.405 2.11321 151.216 2.17537 150.964 2.29967C150.648 2.42398 150.395 2.61044 150.206 2.79689C149.827 3.10766 149.575 3.48057 149.259 3.85349C148.943 4.2264 148.754 4.66147 148.564 5.09654C148.312 5.65591 148.059 6.27744 147.933 6.83681C147.807 7.33403 147.68 7.89341 147.617 8.45278C147.554 9.0743 147.491 9.63368 147.491 10.2552C147.491 10.8146 147.554 11.3118 147.617 11.8712C147.68 12.4305 147.807 12.9899 147.996 13.4871C148.122 13.9844 148.375 14.4816 148.627 15.041C148.691 15.2274 148.817 15.4139 148.88 15.6003C148.754 15.6625 148.627 15.7246 148.438 15.8489C147.933 16.0354 147.365 16.1597 146.86 16.2219C146.418 16.284 145.976 16.284 145.534 16.2219C145.155 16.1597 144.776 16.0354 144.334 15.9111C143.955 15.7246 143.577 15.5382 143.261 15.2896C142.756 14.8545 142.251 14.4194 141.809 13.9222C141.746 13.8601 141.746 13.7979 141.683 13.7357C142.377 12.7413 142.945 11.6847 143.45 10.566C144.082 9.32291 144.587 7.95556 145.092 6.65035C145.281 6.15313 145.408 5.65591 145.597 5.15869C145.786 4.59932 145.786 3.97779 145.66 3.35627C145.597 2.79689 145.344 2.36182 145.092 1.8646C144.966 1.61599 144.713 1.36738 144.461 1.18092C144.145 0.870162 143.829 0.745856 143.387 0.621551C143.135 0.559398 142.882 0.559398 142.566 0.497246C142.503 0.497246 142.377 0.497246 142.251 0.497246C141.998 0.497246 141.809 0.559398 141.556 0.621551C141.241 0.683703 140.988 0.808008 140.735 0.932313C140.483 1.05662 140.23 1.24308 140.041 1.42953C139.852 1.61599 139.662 1.7403 139.473 1.92675C139.283 2.11321 139.094 2.36182 138.905 2.61043C138.526 3.16981 138.273 3.79133 138.021 4.35071C137.831 4.91008 137.642 5.46945 137.516 6.02883C137.389 6.65035 137.263 7.27188 137.2 7.8934C137.137 8.45278 137.074 9.0743 137.074 9.63368C137.074 10.3174 137.2 11.001 137.263 11.6847C137.326 12.2441 137.516 12.7413 137.705 13.3007C137.137 13.9222 136.505 14.5437 135.811 15.1031C135.18 15.5382 134.485 15.9732 133.791 16.284C133.222 16.4705 132.717 16.6569 132.149 16.7191C131.644 16.7812 131.139 16.7812 130.634 16.7191C130.002 16.5948 129.434 16.4705 128.866 16.2218C128.487 16.0354 128.108 15.8489 127.73 15.6003C127.603 15.476 127.477 15.4139 127.351 15.2896C127.793 14.668 128.235 14.0465 128.677 13.3628C129.308 12.3684 129.75 11.2496 130.192 10.1309C130.634 8.95 131.013 7.70694 131.202 6.40174C131.328 5.78021 131.391 5.22084 131.328 4.59931C131.328 4.03994 131.202 3.41842 131.076 2.85904C131.013 2.61043 130.949 2.36182 130.823 2.17536C130.697 1.92675 130.634 1.67814 130.507 1.42953C130.444 1.36738 130.444 1.30523 130.381 1.24307C130.255 1.05662 130.129 0.932312 129.939 0.745854C129.75 0.621549 129.624 0.497243 129.434 0.372938C129.245 0.310786 129.055 0.18648 128.866 0.124328C128.55 0.0621751 128.298 2.24323e-05 127.982 2.23771e-05C127.919 2.23661e-05 127.793 2.2344e-05 127.73 2.23329e-05C127.54 2.22998e-05 127.288 0.0621748 127.098 0.124327C126.846 0.18648 126.53 0.372938 126.341 0.497243C126.088 0.621548 125.835 0.870158 125.646 1.05662C125.204 1.42953 124.888 1.92675 124.573 2.36182C124.194 2.92119 123.878 3.60487 123.626 4.2264C123.184 5.34514 122.994 6.52604 122.868 7.70694C122.679 9.01215 122.616 10.3174 122.679 11.6226C122.742 12.7413 122.994 13.7979 123.436 14.8545C122.489 15.8489 121.479 16.7812 120.406 17.6514C119.269 18.4593 118.07 19.143 116.744 19.7024C115.671 20.1375 114.597 20.5104 113.461 20.6968C112.766 20.759 112.072 20.759 111.377 20.6968C110.872 20.6347 110.367 20.4482 109.862 20.2618C109.42 20.0753 108.978 19.8267 108.599 19.5159C108.221 19.2052 107.905 18.8944 107.589 18.5215C107.463 18.335 107.337 18.2107 107.21 18.0243C107.463 17.6514 107.779 17.2784 108.031 16.8434C108.726 15.7868 109.357 14.668 109.862 13.5493C110.367 12.4305 110.809 11.3118 110.999 10.1309C111.125 9.50937 111.188 8.88784 111.188 8.26631C111.188 7.58264 111.062 6.83681 110.809 6.15313C110.746 5.90452 110.62 5.65591 110.493 5.34514C110.43 5.15868 110.304 4.97223 110.178 4.84792C109.988 4.66146 109.862 4.47501 109.673 4.28855C109.483 4.10209 109.168 3.91563 108.915 3.85348C108.662 3.79133 108.41 3.79133 108.157 3.79133C107.905 3.79133 107.589 3.85348 107.4 3.91563C106.768 4.10209 106.263 4.59931 105.821 5.03438C105.001 5.90452 104.559 7.02326 104.117 8.07986C103.612 9.32291 103.422 10.6281 103.233 11.9333C103.107 13.1764 103.17 14.4194 103.359 15.6625C103.485 16.2218 103.612 16.8434 103.738 17.4027C102.854 18.3972 101.907 19.3295 100.897 20.1375C100.076 20.759 99.129 21.2562 98.1819 21.6913C97.4243 22.002 96.6667 22.1885 95.909 22.3128C95.1514 22.3749 94.3306 22.3749 93.573 22.3128C92.9417 22.1885 92.3734 22.0642 91.8052 21.8156C91.237 21.567 90.7319 21.2562 90.2268 20.9454C89.7217 20.5725 89.3429 20.1375 88.901 19.6402C88.459 19.0187 88.0802 18.335 87.7645 17.6514C87.6382 17.4027 87.5751 17.092 87.4488 16.8434C87.6382 16.5948 87.8276 16.3461 88.0171 16.0975C88.7115 15.1652 89.3429 14.1087 89.9743 13.0521C90.6056 11.9333 91.1107 10.6903 91.3633 9.44721C91.4895 8.88784 91.5527 8.26631 91.5527 7.70694C91.5527 7.08541 91.4895 6.46389 91.3633 5.84236C91.3001 5.5316 91.237 5.28299 91.1739 4.97222C91.1107 4.72361 90.9844 4.41285 90.795 4.16424C90.7319 4.03993 90.6688 3.97778 90.5425 3.85348C90.4162 3.66702 90.2899 3.54271 90.1005 3.48056C89.7849 3.2941 89.4692 3.1698 89.1535 3.10765C88.8378 3.04549 88.6484 3.04549 88.3327 3.10765C88.0171 3.1698 87.7645 3.1698 87.512 3.2941C87.2594 3.41841 87.0069 3.54271 86.7543 3.66702C86.5018 3.79132 86.2493 4.03993 86.0599 4.22639C85.9967 4.28854 85.9336 4.3507 85.8704 4.41285C85.7442 4.59931 85.6179 4.72361 85.4916 4.91007C85.3653 5.15868 85.1759 5.34514 85.0497 5.59375C84.9234 5.84236 84.7971 6.15312 84.6709 6.40173C84.5446 6.71249 84.4183 7.08541 84.292 7.39617C83.9132 8.57707 83.787 9.75797 83.7238 11.001C83.6607 12.3062 83.8501 13.6114 84.0395 14.9166C84.1026 15.2274 84.1658 15.476 84.1658 15.7868C83.2819 16.7812 82.398 17.7135 81.3878 18.5215C80.2513 19.3295 79.0518 20.0753 77.7259 20.6347C77.2208 20.8211 76.7157 21.0076 76.2107 21.1319C75.5793 21.3184 75.0111 21.4427 74.3797 21.5048C73.6852 21.567 72.9907 21.6291 72.2331 21.567C71.6649 21.4427 71.1598 21.3184 70.6547 21.1319C69.8339 20.759 69.0763 20.3239 68.3818 19.8267C67.6873 19.2673 67.056 18.6458 66.4877 17.9621C66.4877 17.9 66.4246 17.9 66.4246 17.8378C67.056 16.9677 67.561 16.0354 68.0661 15.1031C68.6344 14.0465 69.1394 12.9278 69.5183 11.809C69.7077 11.2496 69.8971 10.6903 70.0233 10.0687C70.0865 9.75797 70.0865 9.44721 70.1496 9.13644C70.1496 8.76353 70.0865 8.32846 70.0233 7.95554C69.9602 7.39617 69.6445 6.8368 69.4551 6.33958C69.3288 6.09097 69.1394 5.84236 69.0132 5.59375C68.8238 5.34514 68.6344 5.09652 68.3818 4.91007C67.9399 4.475 67.3716 4.10208 66.6771 4.10208C66.3615 4.10208 66.1089 4.16424 65.7932 4.16424C65.6038 4.22639 65.4776 4.28854 65.2882 4.35069C65.0987 4.41285 64.9093 4.53715 64.7199 4.5993C64.4674 4.72361 64.2149 4.97222 64.0254 5.09652C63.836 5.28298 63.6466 5.46944 63.4572 5.6559C63.2678 5.90451 63.0784 6.15312 62.9521 6.40173C62.7627 6.65034 62.6996 6.9611 62.5733 7.20971C62.0682 8.39061 61.8788 9.69582 61.7526 10.9389C61.6263 12.1819 61.7525 13.425 61.942 14.6059C62.0682 15.6003 62.3839 16.5326 62.7627 17.4027C62.3208 17.9621 61.8157 18.5215 61.3106 19.0809C60.8055 19.6402 60.1742 20.1996 59.6059 20.6347C58.722 21.2562 57.8381 21.8156 56.8279 22.2506C56.0703 22.5614 55.3127 22.7479 54.5551 22.8722C54.1131 22.9343 53.7343 22.9343 53.2923 22.8722C52.8504 22.81 52.4716 22.6857 52.0296 22.4992C51.7139 22.3128 51.3983 22.1885 51.0826 21.9399C50.7669 21.6913 50.4512 21.3805 50.1987 21.0697C49.9461 20.6968 49.7567 20.3239 49.5673 19.951C49.5042 19.8267 49.5042 19.7024 49.4411 19.6402C49.6936 19.3916 49.883 19.0809 50.1356 18.8322C50.5144 18.335 50.9563 17.8378 51.3351 17.2784C51.7139 16.7191 52.0296 16.1597 52.4084 15.5382C53.2923 14.0465 53.9868 12.4305 54.6813 10.8146C54.9339 10.193 55.2496 9.57151 55.5021 8.94998C55.6915 8.39061 55.944 7.83124 55.944 7.27186C56.0072 6.58819 55.7546 5.90451 55.3758 5.34513C55.3127 5.22083 55.1864 5.09652 55.1233 4.97222C54.997 4.78576 54.8076 4.66145 54.6182 4.53715C54.3657 4.35069 54.1131 4.22639 53.8606 4.16423C53.608 4.10208 53.2923 4.03993 52.9767 3.97778C52.661 3.97778 52.3453 3.97778 52.0296 4.03993C51.3983 4.16423 50.8932 4.35069 50.325 4.66145C50.1356 5.46944 49.883 5.6559 49.6305 5.84235C49.3779 6.09096 49.1254 6.33957 48.8728 6.58818C48.1152 7.45832 47.4207 8.39061 46.9156 9.4472C46.6631 10.0066 46.4737 10.5659 46.2843 11.1253C46.0949 11.7468 46.0317 12.3684 45.9054 13.0521C45.716 14.2951 45.6529 15.476 45.6529 16.7191C45.6529 17.3406 45.716 17.9 45.7792 18.5215C45.1478 19.143 44.5165 19.7024 43.822 20.1996C42.6855 21.0076 41.4859 21.7534 40.2232 22.3128C39.3393 22.6857 38.3923 22.9343 37.4452 23.1208C36.8139 23.1829 36.2457 23.1829 35.6774 23.1208C35.2355 23.0586 34.7935 22.9343 34.3516 22.81C33.9096 22.6235 33.4677 22.3128 33.0257 22.0642C32.8995 21.9399 32.7101 21.8156 32.5838 21.6913C33.4677 20.8833 34.2253 19.951 34.9829 19.0187C35.8037 17.9621 36.4351 16.8434 36.9402 15.6625C37.1927 15.1031 37.3821 14.5437 37.5084 13.9843C37.6978 13.3628 37.7609 12.6791 37.8241 11.9955C37.8872 11.3739 37.7609 10.6903 37.6347 10.0687C37.5715 9.82012 37.5084 9.50935 37.3821 9.26074C37.1927 8.82567 37.0033 8.45276 36.7508 8.07984C36.5613 7.76908 36.3088 7.52047 36.1194 7.27186C35.93 7.02325 35.6143 6.77464 35.3618 6.65033C34.9198 6.33957 34.3516 6.15311 33.8465 6.09096C33.5308 6.02881 33.2151 6.02881 32.8363 6.02881C32.5207 6.02881 32.1418 6.09096 31.8262 6.15311C31.763 6.15311 31.6368 6.21527 31.5736 6.21527C31.3211 6.27742 31.1317 6.40172 30.8791 6.46388C30.5003 6.65033 30.1215 6.89894 29.8058 7.20971C29.6164 7.39616 29.3639 7.58262 29.1745 7.76908C28.9219 8.01769 28.7325 8.32845 28.5431 8.57706C28.1643 9.07428 27.9117 9.69581 27.6592 10.2552C27.4698 10.8146 27.2804 11.3118 27.091 11.8712C26.9016 12.617 26.7753 13.3628 26.7122 14.1708C26.5859 15.4138 26.5227 16.6569 26.7122 17.8378C26.7753 18.5215 26.9016 19.143 27.091 19.7645C27.2172 20.2618 27.4066 20.759 27.5961 21.194C26.7753 21.7534 25.8914 22.1885 25.0075 22.6235C24.1236 22.9965 23.1765 23.2451 22.1664 23.3694C21.4719 23.4315 20.8405 23.4315 20.146 23.3694C19.3884 23.2451 18.6939 23.0586 17.9994 22.7479C17.3049 22.4371 16.7367 22.0642 16.1053 21.6291C15.474 21.1319 14.9057 20.5725 14.4007 19.951C13.8324 19.2052 13.3905 18.4593 13.0117 17.5892C12.8854 17.2784 12.7591 16.9677 12.696 16.719C14.7163 15.476 16.6104 14.1086 18.3782 12.617C18.8202 12.2441 19.3253 11.809 19.7672 11.3739C20.2092 10.9389 20.6511 10.5038 21.0299 10.1309C21.4087 9.75796 21.7876 9.38505 22.1032 8.94998C22.4821 8.45276 22.7346 7.89338 22.924 7.27186C23.0503 6.77464 23.0503 6.21526 22.9871 5.71804C22.924 5.15867 22.7977 4.66145 22.5452 4.16423C22.0401 3.10763 21.2193 2.29965 20.2092 1.74028C19.9566 1.61597 19.6409 1.49167 19.3884 1.36736C19.1359 1.24306 18.8833 1.1809 18.5676 1.1809C17.9994 1.0566 17.3681 1.11875 16.7998 1.1809C16.2316 1.24305 15.7265 1.42951 15.1583 1.67812C14.5269 1.98889 13.9587 2.29965 13.4536 2.73472C11.5596 4.22638 10.36 6.46387 9.60234 8.70137C9.22352 9.82011 9.03412 11.0632 8.97098 12.3062C8.90784 13.6114 9.03412 14.9788 9.28666 16.2218C9.3498 16.4704 9.41293 16.7812 9.47607 17.0298C8.02394 17.8999 6.44555 18.6458 4.93029 19.3295C4.36206 19.5781 3.85698 19.7645 3.28875 19.8888C2.90994 19.951 2.40485 20.1374 1.89976 20.2617C1.71036 20.2617 1.52095 20.2617 1.33154 20.2617L1.26841 20.2617C1.33154 20.1996 1.39468 20.1374 1.45781 20.0753C1.71036 19.8888 1.9629 19.7024 2.21544 19.5159C2.46799 19.3295 2.53112 19.0187 2.40485 18.7701C2.27858 18.5836 1.89977 18.3972 1.71036 18.5836C1.39468 18.7701 1.14213 18.9565 0.826456 19.2052C0.700184 19.3295 0.573912 19.4538 0.44764 19.5781C0.321369 19.7024 0.195097 19.8888 0.0688253 20.0753C-0.0574464 20.2617 0.00568936 20.5725 0.131961 20.6968C0.258233 20.8211 0.44764 20.9454 0.573912 21.0697C0.637048 21.0697 0.700184 21.1319 0.763319 21.194C0.889591 21.2562 0.952727 21.2562 1.079 21.3183C1.33154 21.3805 1.52095 21.3805 1.71036 21.3805C1.9629 21.3805 2.15231 21.3183 2.40485 21.3183C2.65739 21.2562 2.97307 21.194 3.22562 21.1319C3.47816 21.0697 3.79384 21.0076 4.04638 20.9454C4.74088 20.759 5.37224 20.5104 6.06673 20.2617C7.45572 19.6402 8.78157 19.0187 10.1074 18.335ZM151.216 8.51493C151.342 7.7691 151.532 7.02327 151.847 6.33959C151.974 6.02883 152.163 5.71807 152.352 5.4073C152.416 5.34515 152.479 5.22084 152.542 5.15869L152.605 5.15869L152.668 5.15869C152.731 5.15869 152.794 5.15869 152.858 5.22084C153.11 5.46946 153.426 5.71807 153.678 6.02883C153.931 6.33959 154.12 6.65035 154.31 7.02327C154.373 7.14758 154.373 7.27188 154.436 7.39619C154.436 7.45834 154.436 7.58264 154.436 7.6448C154.373 7.89341 154.31 8.14202 154.183 8.32848C153.805 9.07431 153.426 9.82014 152.984 10.566C152.542 11.2496 152.1 11.9955 151.658 12.6792C151.469 12.1198 151.342 11.5604 151.216 11.001C151.153 10.1931 151.153 9.38507 151.216 8.51493ZM142.945 3.48057C142.882 3.48057 142.882 3.48057 142.945 3.48057V3.48057ZM142.819 3.35627C142.882 3.41842 142.882 3.41842 142.882 3.48057C142.882 3.41842 142.819 3.41842 142.819 3.35627C142.819 3.35627 142.756 3.29411 142.819 3.35627C142.819 3.35627 142.756 3.29411 142.819 3.35627ZM140.483 7.64479C140.609 6.7125 140.799 5.71806 141.177 4.84793C141.367 4.53716 141.493 4.2264 141.746 3.91564C141.872 3.79133 141.998 3.60488 142.188 3.48057C142.314 3.41842 142.44 3.35626 142.566 3.29411C142.63 3.29411 142.693 3.29411 142.756 3.23196C142.756 3.23196 142.756 3.23196 142.819 3.23196C142.882 3.29411 142.945 3.41842 142.945 3.48057C142.945 3.54272 142.945 3.60488 143.008 3.60488C143.008 3.72918 143.008 3.85349 143.008 3.97779C142.882 4.41286 142.756 4.84793 142.566 5.22084C142.188 6.09098 141.809 6.89896 141.43 7.70695C141.114 8.32847 140.862 8.88785 140.546 9.44722C140.546 9.26076 140.546 9.0743 140.546 8.88785C140.42 8.57708 140.42 8.14201 140.483 7.64479ZM126.088 8.01771C126.214 6.96111 126.467 5.96667 126.782 4.97223C126.972 4.53716 127.224 4.10209 127.54 3.66703C127.73 3.48057 127.919 3.29411 128.108 3.10765C128.171 3.0455 128.235 3.0455 128.298 2.98335C128.298 3.0455 128.361 3.0455 128.361 3.10765C128.487 3.35626 128.55 3.66703 128.55 3.91564C128.613 4.3507 128.613 4.84792 128.55 5.28299C128.298 6.77466 127.793 8.20416 127.224 9.63367C126.972 10.2552 126.656 10.8767 126.277 11.4983C126.151 11.6847 126.088 11.809 125.962 11.9955C125.899 10.6903 125.962 9.32291 126.088 8.01771ZM108.347 6.96111C108.284 7.02326 108.347 7.02326 108.347 6.96111C108.284 7.02326 108.347 7.02326 108.347 6.96111ZM106.39 11.8712C106.453 11.3739 106.579 10.8146 106.705 10.3173C106.832 9.69582 107.084 9.13645 107.273 8.57708C107.463 8.14201 107.715 7.76909 107.968 7.33403C108.094 7.20972 108.221 7.08542 108.347 6.96111C108.473 7.27187 108.536 7.64479 108.599 7.95555C108.599 8.39062 108.599 8.76353 108.599 9.1986C108.473 10.0687 108.221 10.8767 107.905 11.6847C107.463 12.617 106.958 13.5493 106.39 14.4194C106.39 14.1087 106.326 13.7979 106.326 13.4871C106.326 12.9899 106.326 12.4305 106.39 11.8712ZM86.8806 10.4417C87.0069 9.57152 87.2594 8.63923 87.5751 7.83124C87.7014 7.52048 87.8908 7.27187 88.0802 6.96111C88.2065 6.8368 88.2696 6.7125 88.3959 6.58819C88.459 6.52604 88.5221 6.52604 88.5853 6.46389C88.5853 6.52604 88.6484 6.65034 88.6484 6.7125C88.7115 7.39617 88.7115 8.07985 88.6484 8.76353C88.5221 9.38506 88.3327 10.0066 88.0802 10.566C87.7014 11.3739 87.2594 12.1198 86.8175 12.8656C86.8175 12.6791 86.8175 12.4927 86.8175 12.3062C86.7543 11.6847 86.8175 11.0632 86.8806 10.4417ZM64.9725 10.8767C65.0987 10.1309 65.225 9.38505 65.5407 8.63922C65.667 8.45276 65.7932 8.20415 65.9195 8.0177C66.0458 7.83124 66.2352 7.70693 66.3615 7.58263C66.4246 7.52048 66.4877 7.52048 66.5509 7.45832L66.614 7.45832C66.6771 7.52048 66.7403 7.58263 66.8034 7.64478C66.9297 7.83124 66.9928 7.95554 67.1191 8.142C67.2454 8.39061 67.3085 8.70138 67.3716 8.94999C67.3716 9.1986 67.3716 9.44721 67.3716 9.63366C67.2454 10.3173 67.056 10.9389 66.7403 11.5604C66.2983 12.617 65.7301 13.6736 65.1619 14.668C65.1619 14.668 65.1619 14.668 65.1619 14.7302C65.0987 14.4816 65.0987 14.233 65.0356 13.9843C64.9093 12.9278 64.9093 11.9333 64.9725 10.8767ZM52.5979 7.95554L52.5979 8.01769L52.5979 7.95554ZM52.4716 7.52047C52.4716 7.45832 52.4716 7.45832 52.4716 7.39617C52.4716 7.39617 52.4716 7.45832 52.4716 7.52047ZM52.4084 7.70693C52.3453 7.70693 52.4084 7.70693 52.4084 7.70693V7.70693ZM49.0622 13.9843C49.1885 12.9899 49.4411 11.9955 49.7567 11.001C50.0093 10.5038 50.325 10.0066 50.6406 9.57151C51.0195 9.07429 51.4614 8.63922 51.9034 8.2663C52.0296 8.20415 52.0928 8.142 52.219 8.07985C52.1559 8.20415 52.1559 8.2663 52.0928 8.39061C51.7139 9.19859 51.3351 10.0687 50.8932 10.8767C50.2618 12.1819 49.6305 13.425 48.936 14.668C49.0622 14.3573 49.0622 14.1708 49.0622 13.9843ZM30.7528 13.9843C30.816 13.6114 30.8791 13.1764 31.0054 12.8034C31.1317 12.3062 31.2579 11.8712 31.4473 11.4361C31.6367 11.0632 31.8262 10.6903 32.0156 10.3795C32.1418 10.193 32.3312 10.0687 32.5207 9.88227C32.5838 9.82012 32.7101 9.75796 32.7732 9.69581C32.8363 9.69581 32.8995 9.63366 32.9626 9.63366C33.0889 9.63366 33.2151 9.63366 33.4046 9.63366L33.4677 9.63366C33.5308 9.69581 33.6571 9.82012 33.7202 9.88227C33.8465 10.0066 33.9096 10.193 33.9728 10.3173C34.0359 10.5659 34.1622 10.8146 34.1622 11.1253C34.1622 11.4982 34.1622 11.8712 34.1622 12.3062C34.0359 13.0521 33.8465 13.7357 33.594 14.4194C33.0889 15.476 32.4575 16.4704 31.763 17.4027C31.4473 17.7756 31.1948 18.0864 30.8791 18.3972C30.816 18.0864 30.6897 17.7135 30.6897 17.4027C30.5634 16.3461 30.6266 15.1652 30.7528 13.9843ZM12.3172 10.9389C12.3803 10.5038 12.4435 10.1309 12.5697 9.69581C12.696 9.19859 12.8854 8.76352 13.0748 8.32845C13.4536 7.45831 13.9587 6.65033 14.4638 5.9045C14.8426 5.46943 15.2846 5.03436 15.7265 4.66145C16.0422 4.41284 16.421 4.22638 16.7998 4.03992C17.0524 3.91562 17.3049 3.85346 17.5575 3.79131C17.81 3.79131 18.1257 3.79131 18.3782 3.79131C18.5676 3.85346 18.757 3.91562 18.9464 3.97777C19.199 4.10207 19.4515 4.22638 19.7041 4.41284C19.8935 4.5993 20.0829 4.78575 20.2723 4.97221C20.4617 5.22082 20.588 5.40728 20.7142 5.65589C20.7774 5.9045 20.8405 6.15311 20.9037 6.40172C20.9037 6.58818 20.9037 6.71248 20.9037 6.89894C20.8405 7.14755 20.7774 7.39616 20.7142 7.58262C20.588 7.83123 20.3986 8.07984 20.2723 8.32845C18.6308 10.3173 16.7998 12.1198 14.7163 13.6736C14.0218 14.2329 13.2642 14.7302 12.5066 15.2274C12.4435 14.9788 12.3803 14.668 12.3172 14.3573C12.1909 13.2385 12.1909 12.1198 12.3172 10.9389Z" fill="#FFC900"/>
</svg>
