<svg xmlns="http://www.w3.org/2000/svg" xmlns:xlink="http://www.w3.org/1999/xlink" fill="none" viewBox="0 0 104 138"><defs><path id="a" fill="#FFC900" d="M90.4 47c26 26 40.9 53 27.6 66.3-13.3 13.3-45 3-71-22.9-26-26-27.3-65.3-23-71C28.9 13.2 64.6 21 90.5 47Z"/></defs><use xlink:href="#a"/><mask id="b" width="101" height="103" x="22" y="17" maskUnits="userSpaceOnUse" style="mask-type:alpha"><use xlink:href="#a"/></mask><g fill="#000" mask="url(#b)"><path d="m132.9 93.5-3.4-1.5-3.8-1.6-4.7-1.7-3.5-1-1.7-.8-1.3-.6-.3-.2.4-.4.5-.4 1.6-1.2 1-.8.4-.6.3-.6c.2-.3.3-.7.3-1v-.7a2 2 0 0 0-.4-.6l-.5-.5-.4-.3-1.4-.6a8 8 0 0 1-1-.4l-1.9-.6-4-1.3-4.8-1.5-4.5-1.4-2.7-1-2.7-1.2c-.8-.5-1.7-1-2.4-1.7l-.6-.7-.3-.6v-.7l.3-.7.9-1.3.8-1.2 1.2-1.8c.4-.9.9-1.7 1-2.7l-.1-.7-.2-.7a4 4 0 0 0-.5-1l-.5-.6h-.1l-.4-.3-1.5-.7-1.4-.4-1.4-.5-3-.7-2.9-.5-1.6-.3-2.4-.3-3.8-.5A157.1 157.1 0 0 1 66 51l-2-.6c-.7-.2-1.3-.4-2-.8-.4-.3-.9-.5-1.3-.9l-.3-.4-.2-.3v-.7c0-.3.2-.6.4-.9l.7-1.2.8-1.2 1.1-2 .5-1.2.3-1.5v-1.2a6 6 0 0 0-.4-1.3c0-.3-.3-.6-.6-1l-1-1.2a20.3 20.3 0 0 0-5.4-3 68 68 0 0 0-8.5-3.2L43.8 27a190 190 0 0 0-7.3-1.8l-2-.5-1.7-.3-3.8-.7 6.2 2.2c1.7.6 3.3 1.3 5 1.8l5.6 2 1.7.4 2.8 1 4.3 1.6 2 .8 2.3 1c.9.6 1.7 1.1 2.4 1.8l.6.9.4.9.1.8v.9l-.8 1.9-1.6 2.6-.3.5L59 46l-.3.6-.1.6v1.1l.2.4c.1.4.4.8.6 1l1 1c.8.5 1.7 1 2.6 1.3l1.4.4 1.4.4 3.1.6 1.4.2 1 .1 3 .4 3.5.4 3.7.5 1.8.3a38 38 0 0 1 6.3 1.5c.8.2 1.7.5 2.4.9.4.2.7.3 1 .6v.1l.2.3v1c-.1.5-.3 1-.6 1.4L91.5 63l-.9 1.2-1 1.3-.3.6-.2.6-.2.6v.9l.1.6.3.6.2.6.4.6 1 1 1.3.9a20.2 20.2 0 0 0 5.4 2.5l5.8 1.8 1.8.5 4 1.2 3.4 1 1.5.6.9.2 1.3.6.4.3v.4l-.4.4-2 1.6a15.5 15.5 0 0 1-1.6 1l-.4.5s0 .2-.2.3l-.1.3c0 .2 0 .4-.2.7v.1l.1.5.3.6 1 1 1.2.5 1.2.6 2.9 1 5.7 1.5 8 2.2c.7.2 1.4.3 2 .6l2.6.7c-1.2-.8-2.5-1.4-3.9-2ZM116.8 81Zm-2.6 5.2Zm1.6 24.4-3.3-1.5a69.3 69.3 0 0 0-8.6-3.3l-3.4-1.1-1.7-.7-1.4-.6-.3-.3.5-.3.5-.4 1.5-1.2 1-.9.4-.5.3-.6.4-1c0-.3 0-.5-.2-.7a2 2 0 0 0-.3-.6l-.5-.5-.4-.3c-.4-.3-.9-.4-1.4-.6a8 8 0 0 1-1-.4l-1.9-.6c-1.3-.4-2.6-1-4-1.3l-4.8-1.5-4.5-1.4-2.7-1-2.7-1.2c-.8-.5-1.7-1-2.4-1.7l-.6-.7-.2-.6-.1-.5v-.2c0-.3.2-.5.3-.8l1-1.2.7-1.2c.5-.6.9-1.2 1.2-1.9.5-.8.9-1.7 1-2.6a4.6 4.6 0 0 0-.2-1.4 4 4 0 0 0-.6-1.1l-.5-.5h-.1c-.1-.2-.2-.2-.4-.3l-1.4-.7-1.5-.5c-.4 0-.9-.3-1.3-.4l-3-.7-3-.5-1.6-.3-2.4-.3-3.8-.5A157.1 157.1 0 0 1 49 68l-2-.5-2-.8-1.3-1-.3-.3-.2-.4v-.6c0-.3.2-.6.4-1l.8-1.1.7-1.2 1.2-2 .4-1.2.3-1.5v-1.2a6 6 0 0 0-.4-1.3c0-.3-.3-.7-.5-1L45 51.7a20.3 20.3 0 0 0-5.4-3 68 68 0 0 0-8.5-3.2l-4.3-1.3a190 190 0 0 0-9.2-2.3l-1.8-.4-3.8-.7 6.2 2.3 5 1.8 5.6 2c.6 0 1.1.3 1.7.4l2.8 1 4.3 1.5 2 1c.8.2 1.5.6 2.3 1a8 8 0 0 1 2.4 1.7l.6.9.4.8.2.9-.2.8c-.1.7-.4 1.4-.7 2L43 61.5l-.3.5-.7 1.2-.3.6v1.7l.1.4.6 1 1 .9c.8.6 1.7 1 2.6 1.4l1.4.4c.5 0 1 .2 1.4.3l3.1.7 1.4.2h1l3 .5 3.5.4 3.7.5 1.8.3a38 38 0 0 1 6.4 1.4c.7.3 1.6.5 2.3 1l1 .5v.2l.2.3v.6c.1 0 0 .2 0 .4 0 .5-.3 1-.6 1.4l-1 1.7-1 1.2-1 1.3-.3.6-.2.5-.2.7v.9l.2.5c0 .3 0 .5.2.7 0 .2.2.4.3.5l.3.6 1 1 1.3 1a20.2 20.2 0 0 0 5.4 2.5l5.9 1.8 1.8.5c1.3.4 2.7.7 4 1.2l3.3 1 1.6.5.8.3 1.3.5.4.4v.3l-.3.4-2.1 1.7a15.4 15.4 0 0 1-1.5 1l-.5.5-.1.3-.2.3-.1.6v.7l.4.7c.2.4.6.7 1 1l1.2.5 1.1.5 2.9 1 5.8 1.6c2.6.6 5.3 1.4 8 2.2l2 .5 2.5.8c-1.2-.8-2.5-1.4-3.9-2ZM99.7 98.1Zm-2.6 5.1v.1Zm4.7 25.5-3.4-1.6a69.4 69.4 0 0 0-8.6-3.2l-3.4-1.1-1.7-.7-1.3-.6-.4-.3c.2 0 .4-.2.5-.3l.5-.4 1.5-1.2a64.3 64.3 0 0 1 1.5-1.4l.3-.6c.2-.3.2-.7.3-1l-.1-.8a2 2 0 0 0-.4-.6l-.4-.4-.5-.3c-.4-.3-.9-.5-1.4-.6a29 29 0 0 0-2.9-1c-1.3-.5-2.5-1-3.9-1.3l-4.9-1.5-4.5-1.4-2.7-1-2.6-1.3c-.9-.4-1.7-1-2.5-1.6l-.6-.7-.2-.6-.1-.5v-.2l.4-.8.8-1.2.9-1.2 1.2-1.9c.4-.8.8-1.7.9-2.7v-.6l-.2-.7a4 4 0 0 0-.6-1.1l-.5-.5a71.4 71.4 0 0 0-.5-.3l-1.4-.7-1.4-.5L58 90a40.7 40.7 0 0 0-6-1.3l-1.5-.2L48 88l-3.8-.5a157.5 157.5 0 0 1-11.5-2l-1.9-.7-1.3-1-.4-.4-.1-.3v-.5c-.1 0 0 0 0-.1l.3-1 .8-1.2.8-1.1 1.1-2 .5-1.3.3-1.4v-1.3a6 6 0 0 0-.5-1.2c0-.4-.2-.7-.5-1-.3-.5-.7-.9-1.1-1.2a20.3 20.3 0 0 0-5.3-3 68 68 0 0 0-8.5-3.3l-4.4-1.2a190 190 0 0 0-7.2-1.8l-2-.5-1.7-.4-3.9-.7L4 61.2 9 63l5.6 1.9 1.6.5 2.9 1 4.2 1.5 2.1.9 2.2 1c1 .5 1.7 1 2.5 1.8l.6.9c.1.2.3.5.3.8l.2.8-.1 1-.7 1.9-1.6 2.6-.4.5-.7 1.2-.2.5-.2.7v.6l.1.4.1.5.7 1 1 .9a8 8 0 0 0 2.6 1.3l1.3.4 1.5.4 3 .6 1.5.2 1 .2 3 .4c1.1 0 2.3.3 3.5.4l3.6.5 1.8.3a38 38 0 0 1 6.4 1.4c.8.3 1.6.5 2.4 1l.9.5.1.2.1.3.1.5v.5l-.6 1.4c-.3.6-.8 1.1-1.2 1.7l-.8 1.1-1 1.3-.3.7-.3.5-.1.7v.9l.1.5.2.7.3.5.4.6c.2.4.6.7 1 1l1.2 1a20.2 20.2 0 0 0 5.5 2.4l5.8 1.9 1.8.5 4 1.1 3.4 1 1.5.6.8.3 1.3.5.5.3-.1.4-.3.4-2 1.7a15.4 15.4 0 0 1-1.6 1l-.5.5-.1.2-.1.4-.2.6v.6l.4.7c.3.3.6.7 1 .9l1.2.6 1.1.5 3 1 5.7 1.6c2.7.6 5.3 1.4 8 2.1l2 .6 2.6.8c-1.2-.9-2.6-1.5-4-2.1Zm-16.2-12.6v.1Zm-2.5 5.2v.1Z"/></g></svg>