<svg xmlns="http://www.w3.org/2000/svg" fill="none" viewBox="0 0 231 18"><path fill="#FFC900" d="m221.3 2.8-2.5.1-3.4.4c-2 .1-3.8.5-5.6.9a31.9 31.9 0 0 0-6.9 2.6l-1.2.5a14 14 0 0 1-3.8 1h-3.5c-.8 0-1.6-.3-2.3-.5l-2.4-.8a83.5 83.5 0 0 1-9.4-5.2 5 5 0 0 0-1.2-.3c-.4 0-.8 0-1.2-.2l-.7.1-1 .3-1.6.6-3 1.6-3.9 1.8-2.4.8c-1.1.4-2.2.5-3.3.7-1 .2-2.1.2-3.2.3l-3.6-.3-4.6-.8a32.4 32.4 0 0 1-8-3.1 24.8 24.8 0 0 0-6.4-2.5c-.6-.2-1.4-.2-2.2-.2l-2.2.3c-.8.2-1.5.5-2.2.9a33 33 0 0 0-4.5 3c-1 .6-1.8 1.3-2.6 2l-2.3 1.6-2.5 1.3c-.4.2-.8.4-1.2.4l-1.6.4h-1.2l-1.3-.4a29.2 29.2 0 0 1-6.3-4.3l-1.3-1.2c-1.2-1-2.2-2.2-3.4-3L99.8.4l-1-.3-.4-.1-.7-.1h-1a26 26 0 0 0-3.5 1l-1.9 1-1.3.6-2 1-1 .5-1.7 1.1L84 6c-1 .7-2.1 1.5-3.2 2.1a48 48 0 0 1-7.4 4.1l-1.7.7c-.7.3-1.5.4-2.2.5H67a5 5 0 0 1-2-.5l-2-1.2a20 20 0 0 1-2.7-2.6L59 7.8l-1.6-1.5c-.6-.4-1-.8-1.6-1-.5.1-.9 0-1.2-.1l-1-.2-.7.1-1 .3-.8.5-.7.8-1.2 1.5-1 1.2-1.1 1.3c-.8 1-1.7 1.7-2.6 2.5l-2.2 1.3-2.3.6h-3.3c-1.7-.3-3.3-.8-5-1.4a40 40 0 0 1-6.3-3.6l-2-1.3c-.7-.5-1.4-1-2.1-1.3A10 10 0 0 0 19 6.3a9 9 0 0 0-4.5-1h-1.2l-1 .3-1 .3-1 .5a22 22 0 0 0-8.1 5.2L.6 13l-.4.8v.3L0 15c0 .3 0 .7.3 1 .3 0 .6.2 1 0h.6l1-.5c.4-.2.6-.8.3-1.3a1 1 0 0 0-.6-.4l2.8-2.6c1.6-1.1 3.4-2 5.2-2.9l1.3-.5c.5 0 1-.3 1.6-.3H15l1 .1 1.3.5 2.5 1.4 2.8 1.9 2.7 1.8 2.9 1.7a27 27 0 0 0 5.9 2.4 15.7 15.7 0 0 0 9.4-.2c1-.4 1.9-.8 2.6-1.4.9-.6 1.7-1.4 2.5-2.1l1-1.3c.6-.7 1.1-1.2 1.6-2l2-2.3h.2l.3-.1h.5l1 .6c1 .7 1.7 1.6 2.5 2.4l3.2 3 1.6 1.1 2 1 2 .4c.7.1 1.6.2 2.3.1l2-.2a24.4 24.4 0 0 0 6.5-2.6c2-1 3.8-2.2 5.6-3.4a72 72 0 0 1 2.7-1.8l3.1-1.9.4-.1 1-.6 1.6-.9.4-.1 1.1-.5 1.9-.9 2-.6h.8l.8.3 1.3.8 3.6 3.4 2.4 2 2.3 1.7 2.6 1.5c.8.4 1.7.6 2.6.8h1.2c.5 0 1 0 1.5-.2 1-.2 1.8-.5 2.6-.8l2.6-1.3 3.4-2.5 1.9-1.5 1.6-1.2c1-.8 2.2-1.5 3.5-2a7 7 0 0 1 1.9-.5l1-.1h.8l3 .8 2.4 1.1 1.4.7 1.5.8 2.8 1.3c1 .4 2.1.6 3.2.9 2.2.6 4.4.9 6.7 1.2l3.4.1a24.4 24.4 0 0 0 9.2-2c1.3-.4 2.4-1 3.6-1.6l4.2-2c.3-.2.7-.2 1-.3h.4c.5 0 .8.1 1.2.3 1.3.6 2.5 1.4 3.7 2.2L187 9l4 1.6c1.6.5 3.2.8 4.9.9 1.4 0 2.9-.1 4.3-.4a21 21 0 0 0 3.5-1.3l1.5-.7 1-.5 1.3-.6a26 26 0 0 1 7.3-1.8l4-.4 3.5-.3c2.3-.1 4.7-.3 7-.2 1 0 1.7-.8 1.7-1.6 0-.9-.8-1.6-1.6-1.6l-5.4.2c-1 .3-1.8.4-2.7.5Zm-43.7 1.6h.1-.1Z"/></svg>