<svg xmlns="http://www.w3.org/2000/svg" fill="none" viewBox="0 0 258 16"><g fill="#FFC900" clip-path="url(#a)"><path d="m5.6 6.5 6.2-.1h2.5l11-.5 13.1-.5 18.8-.7c1.4 0 2.8 0 4.3-.2a591.8 591.8 0 0 1 22-.6l4.2-.2 17.5-.4 10.7-.2 4.3-.1 16.8-.2 16.6-.2H204c-8.7 0-17.5 0-26.1.2l-10.9.1h-4.7l-15.8.4-18.2.3h-3l-9.8.4-19.6.6-2.9.1-9.6.5-17.2.8-4.7.3-11 .7-14 .8L17 9l-4.7.3-8.3.6c-.3 0-.6.1-.6.4 0 .2.3.4.6.4h3l-.2.8c0 .8.8 1.5 2 1.5 8-.4 15.8-.8 23.8-1l20.8-.7a2581 2581 0 0 1 30.1-1l2.1-.1 37-.7c6.5-.1 13.1-.3 19.7-.3l7.1-.2 37.8-.4 16.2-.2c4.6 0 9.2 0 13.8-.2 3.9 0 7.6-.2 11.5-.3l5.6-.1 13-.6a1 1 0 0 0-.2 1c.1.3.4.5.9.7.4.1 1 .3 1.3.1l2.8-.8h.1l.2-.1 1.5-.5 1.5-.5 1.6-.6c.6-.2 1-.7 1-1.2 0-.3-.1-.5-.3-.8-.2-.2-.7-.6-1.1-.6l-1.5-.2h-.3l-1 .1-2.1.1-1.9.1-4.8.3h-1.2c.2-.1.3-.2.3-.4v-.4l.1-.2v-.4c.3-.2.6-.3.8-.6.2-.2.3-.5.3-.7 0-.3 0-.5-.3-.8l-.3-.3-.8-.3-2-.2h-31.4l-29.6.1a2427.2 2427.2 0 0 1-32.2.3l-22.2.3-6.3.1h-3.7l-22 .7-6.7.2-3.7.1-21.8.8-11.3.5-19.2.9-16.8.7-2.7.1c-1.4 0-2.9 0-4.3.2-1.2.2-2.6.2-3.8.2-.1-.2-.5-.5-.8-.4-.9 0-1.6 0-2.5.2-.4 0-.8.2-.9.4 0 .4.2.7.6.8l1.2.2h1l2.8.1Zm225-2.2h3.6l.5.5h-1.3l-2.6.2-11.5.2-5.2.2H206l-18.7.2L151 6l-26 .5-39 .8c-2.6 0-5.2 0-7.8.2L56 8.3 34.3 9h-2c1.9 0 3.9-.1 5.8-.3l20.5-1A3091.7 3091.7 0 0 0 69.4 7l21.4-.9L95 6l6-.1 21.9-.6 4.8-.1h1.2l3.4-.1 22-.4h10.1l32.7-.3h33.6ZM20 16c.3 0 .5-.2.5-.4s-.2-.4-.5-.4-.5.2-.5.4.2.4.5.4Z"/></g><defs><clipPath id="a"><path fill="#fff" d="M0 0h258v16H0z"/></clipPath></defs></svg>